<?xml version="1.0" encoding="utf-8"?>
<!-- Generator: Adobe Illustrator 25.2.1, SVG Export Plug-In . SVG Version: 6.00 Build 0)  -->
<svg version="1.1" xmlns="http://www.w3.org/2000/svg" xmlns:xlink="http://www.w3.org/1999/xlink" x="0px" y="0px"
	 viewBox="0 0 595.3 595.3" style="enable-background:new 0 0 595.3 595.3;" xml:space="preserve">
<style type="text/css">
	.st0{fill:#E52529;}
	.st1{fill:#FFFEFF;}
	.st2{font-family:'FuturaPT-Book';}
	.st3{font-size:34.5288px;}
	.st4{letter-spacing:17.5;}
	.st5{font-family:'FuturaPT-Demi';}
	.st6{font-size:103.6281px;}
	.st7{letter-spacing:2;}
	.st8{fill:#DADBDA;}
	.st9{fill:#C7C7C7;}
	.st10{font-family:'FuturaPT-Medium';}
	.st11{font-size:21.2388px;}
</style>
<g id="BACKGROUND">
	<path class="st0" d="M471.1,595.3H123.6c-68.4,0-123.9-55.5-123.9-123.9V123.9C-0.3,55.5,55.2,0,123.6,0h347.5
		C539.5,0,595,55.5,595,123.9v347.5C595,539.8,539.5,595.3,471.1,595.3z"/>
</g>
<g id="COLLEGE">
	<g>
		<text transform="matrix(0.969 0 0 1 63.5528 454.0752)" class="st1 st2 st3 st4">COLLEGE ALMATY</text>
	</g>
</g>
<g id="POLYTECH">
	<g>
		<text transform="matrix(0.9931 0 0 1 56.3067 406.8535)" class="st1 st5 st6 st7">POLYTECH</text>
	</g>
</g>
<g id="АСТЫ">
	<g>
		<path class="st8" d="M416.1,285.7v-88h-12.6v88h0c-0.3,0.9-1.2,3-3.4,4.8c-2.8,2.2-5.9,2.1-6.8,2.1v0H204.9v0
			c-0.9-0.3-3.1-1.2-4.8-3.4c-2.2-2.8-2.1-5.9-2.1-6.8v-24.2c4-2.2,6.8-6.5,6.8-11.5c0-7.2-5.9-13.1-13.1-13.1
			c-7.2,0-13.1,5.9-13.1,13.1c0,4.9,2.7,9.2,6.8,11.5v24.2c0.2,2.3,0.9,8.1,5.2,13.6c5.2,6.7,12.2,8.7,14.3,9.2v0h188.4v0
			c2.3-0.2,8.1-0.9,13.6-5.2C413.7,294.8,415.6,287.8,416.1,285.7L416.1,285.7z M191.7,242.6c2.3,0,4.1,1.8,4.1,4.1
			s-1.8,4.1-4.1,4.1s-4.1-1.8-4.1-4.1S189.5,242.6,191.7,242.6z"/>
	</g>
</g>
<g id="УСТЫ">
	<g>
		<path class="st1" d="M416.1,152.4v-49c0-1.5-0.3-10.3-7.4-16.8c-5.6-5.2-12.1-5.9-14.1-6H208.2c-1.5,0-10.3,0.3-16.8,7.4
			c-5.2,5.6-5.9,12.1-6,14.1v114.8h12.6V102.1c0-0.7,0.3-3.8,2.8-6.2c3-2.9,6.8-2.7,7.4-2.6h186.4c0.7,0,3.8,0.3,6.2,2.8
			c2.9,3,2.7,6.8,2.6,7.4v49c-4,2.2-6.8,6.5-6.8,11.5c0,7.2,5.9,13.1,13.1,13.1c7.2,0,13.1-5.9,13.1-13.1
			C422.9,159,420.2,154.6,416.1,152.4z M409.8,168c-2.3,0-4.1-1.8-4.1-4.1c0-2.3,1.8-4.1,4.1-4.1c2.3,0,4.1,1.8,4.1,4.1
			C413.9,166.1,412,168,409.8,168z"/>
	</g>
</g>
<g id="P">
	<path class="st8" d="M338.9,130"/>
	<path class="st1" d="M354.5,214.4c-0.3,0.3-0.6,0.6-0.9,0.9h-69.2l11-28.3h31.8l13.1,13.1l0.2,0.2L354.5,214.4z"/>
	<line class="st8" x1="284.4" y1="215.4" x2="284.3" y2="215.5"/>
	<polygon class="st9" points="295.3,187.1 284.4,215.4 284.3,215.4 284.3,187.1 	"/>
	<path class="st1" d="M355.3,144.3h-70.9l-0.1-0.1l-19-19L257,117c0.4-0.4,0.8-0.7,1.3-1H326c0.6,0.2,1.2,0.5,1.8,0.8c0,0,0,0,0,0
		l4.1,4.1c0,0,0,0,0,0l17.9,17.9l5.4,5.4C355.2,144.2,355.2,144.3,355.3,144.3z"/>
	<path class="st8" d="M355.4,144.6v68.7c-0.3,0.4-0.6,0.8-0.9,1.2l-14.1-14.1l-0.2-0.2L327.1,187v-31.3l7.9-3.2l20.3-8.2h0.1
		C355.3,144.4,355.3,144.5,355.4,144.6z"/>
	<polygon class="st8" points="327.1,187.1 327.1,187.1 327.1,187 	"/>
	<polygon class="st8" points="355.2,144.3 334.9,152.5 327.1,155.7 327.1,144.3 	"/>
	<path class="st8" d="M265.3,125.3L257,117c-0.4,0.4-0.8,0.9-1,1.4v137.2c0.2,0.8,0.5,1.5,0.9,2.2l0.9,0.9l0.7-18.1
		c-0.9-0.4-1.5-1.3-1.5-2.4c0.1-1.4,1.2-2.4,2.6-2.4c1.4,0.1,2.4,1.2,2.4,2.6c0,1.1-0.7,1.9-1.7,2.2l-0.8,19.7l4.1,4.1l2-58.6
		c-0.9-0.4-1.5-1.3-1.5-2.4c0-1.4,1.2-2.4,2.6-2.4c1.4,0,2.4,1.2,2.4,2.6c0,1.1-0.7,1.9-1.7,2.2l-2.1,59.9l-0.3,0l3.9,3.9l1.7-46
		c-0.9-0.4-1.5-1.3-1.5-2.4c0-1.4,1.2-2.4,2.6-2.4c1.4,0,2.4,1.2,2.4,2.6c0,1.1-0.7,1.9-1.7,2.2l-1.7,47.6l4,4l0.9-22.1
		c-0.9-0.4-1.5-1.3-1.5-2.4c0.1-1.4,1.2-2.4,2.6-2.4c1.4,0.1,2.4,1.2,2.4,2.6c0,1.1-0.7,1.9-1.7,2.2l-0.9,23.8l5.3,5.3
		c1,1,2.7,0.3,2.7-1.1V144.3L265.3,125.3z"/>
</g>
<g id="_x31_940">
	<text transform="matrix(0.9385 0 0 1 293.9249 273.4707)" class="st1 st10 st11">SINCE 1940</text>
</g>
</svg>
