<?xml version="1.0" encoding="utf-8"?>
<!-- Generator: Adobe Illustrator 25.2.1, SVG Export Plug-In . SVG Version: 6.00 Build 0)  -->
<svg version="1.1" id="Слой_1" xmlns:xodm="http://www.corel.com/coreldraw/odm/2003"
	 xmlns="http://www.w3.org/2000/svg" xmlns:xlink="http://www.w3.org/1999/xlink" x="0px" y="0px" viewBox="0 0 59.5 19.8"
	 style="enable-background:new 0 0 59.5 19.8;" xml:space="preserve">
<style type="text/css">
	.st0{fill-rule:evenodd;clip-rule:evenodd;fill:#FFFFFF;}
	.st1{fill-rule:evenodd;clip-rule:evenodd;fill:#E42529;}
</style>
<g id="Слой_x0020_1">
	<path class="st0" d="M40.1,11.9c0.3,0,0.7,0,0.9,0.2c0.2,0.1,0.3,0.2,0.4,0.3l0.2,0.2c0.2,0.1,0.4,0.4,0.5,0.7
		c0.2,0.3,0.1,0.6,0.1,1c0,0.2,0,0.4,0,0.6c0,0.7,0,0.8-0.4,1.3c-0.1,0.1-0.2,0.2-0.3,0.3c-0.6,0.5-1.3,0.7-2.1,0.4
		c-0.3-0.1-0.5-0.3-0.6-0.5c-0.8-0.9-0.8-2.5-0.2-3.4C39.1,12.2,39.5,11.9,40.1,11.9z M42.3,11.1c-0.3-0.3-0.4-0.4-0.8-0.7
		c-1.1-0.6-2.5-0.5-3.6,0c-1.4,0.7-2.1,2.2-2.1,3.8c0,1.2,0.3,2.2,1,3c0.2,0.3,0.6,0.6,1,0.8c1.1,0.6,2.4,0.6,3.6,0.1
		c0.3-0.1,0.5-0.2,0.7-0.4c0.1-0.1,0.1-0.1,0.2-0.2l0,0.8l2.4,0l0-14.1l-2.4,0C42.3,4.3,42.3,11.1,42.3,11.1z"/>
	<path class="st0" d="M51.1,13.6c0-0.2,0.2-0.6,0.3-0.7c0.1-0.2,0.2-0.4,0.4-0.6c0,0,0,0,0.1-0.1L52,12c0.7-0.6,1.9-0.4,2.5,0.2
		c0.1,0.2,0.3,0.3,0.4,0.6c0.1,0.2,0.2,0.5,0.2,0.7C55.1,13.6,51.1,13.6,51.1,13.6z M57.6,16L55,16c-0.1,0.4-0.5,0.7-0.9,0.8
		c-0.7,0.3-1.4,0.3-2.1-0.2c-0.2-0.1-0.3-0.3-0.5-0.4c-0.2-0.1-0.6-0.8-0.6-1.2l6.6,0c0-2.5-1.2-4.6-3.7-5c-1.3-0.2-2.6,0-3.6,0.6
		c-0.3,0.2-0.4,0.3-0.6,0.5c-0.1,0.1-0.4,0.4-0.5,0.6c-0.3,0.4-0.5,0.9-0.7,1.5c-0.1,0.6-0.1,1.4,0,2c0.1,0.6,0.3,1.1,0.6,1.6
		c0.1,0.2,0.3,0.4,0.5,0.6c0.6,0.6,1.3,1,2.1,1.1c1.2,0.3,2.7,0.1,3.7-0.4c0.3-0.1,0.5-0.3,0.7-0.4c0.2-0.2,0.4-0.3,0.6-0.5L57,17
		C57.2,16.8,57.6,16.3,57.6,16z"/>
	<path class="st0" d="M30.8,12c0.7-0.1,1.3,0.2,1.6,0.5c0.4,0.5,0.5,0.9,0.6,1.5c0.1,1.1-0.4,2.4-1.6,2.6c-1.3,0.2-2.1-0.9-2.1-2.1
		c0-0.7,0.1-1.3,0.4-1.8C29.9,12.4,30.2,12.1,30.8,12z M30.7,10c-0.6,0-1.2,0.2-1.7,0.4c-0.5,0.3-0.9,0.6-1.2,0.9l-0.1,0.1
		c-0.3,0.3-0.6,0.8-0.7,1.2c-0.5,1.4-0.3,3.1,0.6,4.3c0.2,0.2,0.4,0.4,0.5,0.6c0,0,0,0,0.1,0.1c0.2,0.2,0.3,0.2,0.6,0.4
		c0.2,0.1,0.5,0.3,0.8,0.3c1.4,0.5,3.3,0.3,4.5-0.7c0.1-0.1,0.3-0.3,0.4-0.4c0,0,0,0,0.1-0.1c0.1-0.1,0.3-0.4,0.4-0.6
		c0.8-1.2,0.8-3.1,0.1-4.4c-0.4-0.8-0.9-1.3-1.6-1.7C32.6,10.1,31.7,10,30.7,10z"/>
	<path class="st0" d="M20.1,14.5c0-0.7,0.1-1.2,0.4-1.7c0.2-0.4,0.7-0.8,1.3-0.8c0.8,0,1.2,0.2,1.5,0.6c0.3,0.4,0.5,1,0.5,1.6
		c0,0.9-0.3,1.8-1,2.2c-0.5,0.3-1.2,0.3-1.7,0.1C20.5,16.2,20.1,15.3,20.1,14.5z M21.7,10c-0.7,0-1.2,0.2-1.8,0.4
		c-0.3,0.1-0.8,0.4-1,0.7c-0.1,0.1-0.3,0.3-0.5,0.5c-0.3,0.4-0.5,0.6-0.6,1.1c-0.4,1.1-0.4,2.6,0.2,3.7c0.2,0.4,0.3,0.5,0.5,0.8
		c0,0.1,0.1,0.1,0.1,0.1c0.1,0.2,0.4,0.4,0.6,0.5c0.3,0.2,0.7,0.4,1.1,0.6c0.6,0.2,1.2,0.3,1.9,0.3c1,0,1.9-0.4,2.6-0.9
		c0.4-0.3,0.6-0.6,0.9-1c0.1-0.2,0.3-0.5,0.4-0.7c0.5-1.4,0.3-3.2-0.6-4.3c-0.1-0.1-0.3-0.3-0.4-0.4c-0.1-0.1-0.1-0.1-0.2-0.1
		c0,0-0.1-0.1-0.1-0.1C24,10.2,22.8,9.9,21.7,10z"/>
	<path class="st0" d="M10.4,10.6c0,0-0.4,0.5-0.5,0.7c-0.3,0.4-0.5,0.5-0.9,0.8c0,0-0.1,0.1-0.1,0.1c0.2,0.1,0.3,0.3,0.4,0.4
		c0.2,0.5,0.2,1,0.2,1.5v4.4l2.5,0c0-0.6,0-1.3,0-1.9c0-0.6,0-1.3,0-1.9c0-1.1-0.2-2.6,1.3-2.6c0.6,0,1,0.2,1.2,0.8
		c0.2,0.5,0.1,1.3,0.1,1.8c0,0.6,0,1.3,0,1.9c0,0.6,0,1.3,0,1.9l2.5,0c0-0.3,0-0.7,0-1v-2.9c0-1.3,0.1-2.4-0.6-3.3
		c-0.2-0.3-0.6-0.6-1.1-0.8c-1.1-0.5-3.3-0.6-4.4,0.2c0,0-0.1,0.1-0.1,0.1c0,0-0.1,0.1-0.1,0.1C10.8,10.9,10.6,10.6,10.4,10.6z"/>
	<path class="st0" d="M45.5,4.3c0,1.2,0,2.4,0,3.5v7.1c0,0.2,0,3.4,0,3.5l2.5,0l0-14.1C47.9,4.3,45.6,4.3,45.5,4.3z"/>
	<path class="st1" d="M4.6,12.6l0.6,0.1c0.7,0.2,1.2,0.2,2,0.1c0.7-0.2,0.8-0.2,1.4-0.5c0.1-0.1,0.3-0.2,0.4-0.2
		c0,0,0.1-0.1,0.1-0.1c0.4-0.3,0.6-0.4,0.9-0.8c0.1-0.1,0.5-0.6,0.5-0.7c0-0.1-0.1-0.1-0.1-0.1c0,0-0.1-0.1-0.1-0.1
		c0-0.1-0.1-0.1-0.2-0.2c-0.1-0.1-0.5-0.4-0.6-0.5L11,8.5c0.2-0.2,0.8-0.5,0.9-0.7l0-0.1c-0.3,0-1.1,0.1-1.5,0.2
		C9.9,8,9.4,8.1,8.9,8.2c-2.4,0.4-4.2,1-6.3,2.2c-0.1,0.1-0.9,0.5-1.1,0.6l0,0l0,0.1l0.3,0l0,0.7c0,0.5,0,0.9,0,1.5
		c0,0.3-0.5,0.9,0.2,2.5c0.1,0.1,0.2,0.4,0.2,0.5c0-0.2,0-1.1,0-1.4c0-0.5-0.1-1.1-0.2-1.5c0-0.1,0-0.2,0-0.3c0-0.7,0-1.4,0-2l2.6,0
		l0,0.8C4.5,12,4.6,12.5,4.6,12.6z"/>
	<path class="st0" d="M4.6,12.6c-0.1,0.5,0,1,0,1.5c0,1.5,0,3,0,4.4l2.5,0c0-1.4,0-2.9,0-4.3c0-0.5,0-0.9,0.1-1.3
		c-0.7,0.1-1.3,0.1-2-0.1C5.2,12.7,4.6,12.6,4.6,12.6z"/>
</g>
</svg>
