<?xml version="1.0" encoding="utf-8"?>
<!-- Generator: Adobe Illustrator 25.2.1, SVG Export Plug-In . SVG Version: 6.00 Build 0)  -->
<svg version="1.1" id="Слой_1" xmlns="http://www.w3.org/2000/svg" xmlns:xlink="http://www.w3.org/1999/xlink" x="0px" y="0px"
	 viewBox="0 0 1632.7 308.8" style="enable-background:new 0 0 1632.7 308.8;" xml:space="preserve">
<style type="text/css">
	.st0{fill:#5176E8;}
	.st1{fill:#31333F;}
	.st2{fill:#7FC123;}
	.st3{fill:#FFFFFF;}
	.st4{fill:#E1EAFB;}
	.st5{fill:#7BC029;}
	.st6{fill:none;stroke:#7FC123;stroke-width:6;stroke-linecap:round;stroke-linejoin:round;stroke-miterlimit:10;}
	.st7{fill:#7FBD2A;}
</style>
<g>
	<g id="g58" transform="translate(-7.0511232,78.742156)">
		<rect id="rect1" x="1484" y="74.3" class="st0" width="155.8" height="155.8"/>
		<rect id="rect2" x="1172.5" y="74.3" class="st0" width="155.8" height="155.8"/>
		<rect id="rect3" x="552.3" y="74.3" class="st0" width="155.8" height="155.8"/>
		<rect id="rect4" x="162.9" y="74.3" class="st0" width="155.8" height="155.8"/>
		<rect id="rect5" x="708" y="-78.7" class="st0" width="308.8" height="308.8"/>
		<rect id="rect6" x="1328.3" y="74.3" class="st1" width="155.8" height="155.8"/>
		<rect id="rect7" x="1016.8" y="-3.5" class="st0" width="77.9" height="77.9"/>
		<rect id="rect8" x="1094.7" y="-3.5" class="st1" width="77.9" height="77.9"/>
		<rect id="rect9" x="630.1" y="-3.5" class="st1" width="77.9" height="77.9"/>
		<rect id="rect10" x="162.9" y="-3.5" class="st1" width="77.9" height="77.9"/>
		<rect id="rect11" x="85" y="-3.5" class="st0" width="77.9" height="77.9"/>
		<rect id="rect12" x="318.6" y="152.2" class="st2" width="77.9" height="77.9"/>
		<path id="path12" class="st0" d="M357.6,159.6L357.6,159.6c0,17.4-14.1,31.6-31.6,31.6l0,0c17.4,0,31.6,14.1,31.6,31.6l0,0
			c0-17.4,14.1-31.6,31.6-31.6l0,0C371.7,191.2,357.6,177,357.6,159.6z"/>
		<path id="path13" class="st0" d="M201.8,3.9L201.8,3.9c0,17.4-14.1,31.6-31.6,31.6l0,0c17.4,0,31.6,14.1,31.6,31.6l0,0
			c0-17.4,14.1-31.6,31.6-31.6l0,0C215.9,35.4,201.8,21.3,201.8,3.9z"/>
		<rect id="rect13" x="1016.8" y="74.3" class="st1" width="155.8" height="155.8"/>
		<rect id="rect14" x="396.5" y="74.3" class="st1" width="155.8" height="155.8"/>
		<rect id="rect15" x="7.1" y="74.3" class="st1" width="155.8" height="155.8"/>
		<path id="path15" class="st0" d="M526.3,99.2H423.5c-3.8,0-7,3.1-7,7v95.5c0,3.8,3.1,7,7,7h102.8c3.8,0,7-3.1,7-7v-95.6
			C533.3,102.3,530.2,99.2,526.3,99.2z"/>
		<path id="path16" class="st2" d="M526.3,99.2H423.5c-3.8,0-7,3.1-7,7V121h116.8v-14.8C533.3,102.3,530.2,99.2,526.3,99.2
			L526.3,99.2z"/>
		<circle id="circle16" class="st1" cx="428.8" cy="110.1" r="4.6"/>
		<circle id="circle17" class="st1" cx="443.4" cy="110.1" r="4.6"/>
		<circle id="circle18" class="st1" cx="458.1" cy="110.1" r="4.6"/>
		<path id="path18" class="st3" d="M453.8,186.8c-1,0-2-0.4-2.7-1.1l-20-20c-1.5-1.5-1.5-3.9,0-5.4l19.7-19.7c1.5-1.5,3.9-1.5,5.4,0
			s1.5,3.9,0,5.4l-17,17l17.3,17.3c1.5,1.5,1.5,3.9,0,5.4C455.8,186.4,454.8,186.8,453.8,186.8z"/>
		<path id="path19" class="st3" d="M496.4,186.8c-1,0-2-0.4-2.7-1.1c-1.5-1.5-1.5-3.9,0-5.4L511,163l-17-17c-1.5-1.5-1.5-3.9,0-5.4
			s3.9-1.5,5.4,0l19.7,19.7c0.7,0.7,1.1,1.7,1.1,2.7s-0.4,2-1.1,2.7l-20,20C498.3,186.4,497.4,186.8,496.4,186.8z"/>
		<path id="path20" class="st3" d="M467.9,187.9c-0.4,0-0.9-0.1-1.3-0.2c-2-0.7-3-3-2.3-4.9l15.2-40.8c0.7-2,3-3,4.9-2.3
			c2,0.7,3,3,2.3,4.9l-15.2,40.8C470.9,186.9,469.5,187.9,467.9,187.9z"/>
		<g id="g27">
			<path id="path21" class="st2" d="M1425.1,118.2h-37.9c-20.5,0-37,16.6-37,37V177c0,20.5,16.6,37,37,37h37.9c20.5,0,37-16.6,37-37
				v-21.8C1462.2,134.8,1445.6,118.2,1425.1,118.2z M1445,172.5c0,12.7-10.3,23.1-23.1,23.1h-31.6c-12.7,0-23.1-10.3-23.1-23.1
				v-12.7c0-12.7,10.3-23.1,23.1-23.1h31.6c12.7,0,23.1,10.3,23.1,23.1V172.5z"/>
			<path id="path22" class="st2" d="M1463.8,180.6h-1.7c-3.7,0-6.6-3-6.6-6.6v-14.2c0-3.7,3-6.6,6.6-6.6h1.7c3.7,0,6.6,3,6.6,6.6
				V174C1470.5,177.7,1467.5,180.6,1463.8,180.6z"/>
			<path id="path23" class="st2" d="M1424.6,118.1v1.7c0,3.7-3,6.6-6.6,6.6h-23.5c-3.7,0-6.6-3-6.6-6.6v-1.7c0-3.7,3-6.6,6.6-6.6
				h23.5C1421.6,111.5,1424.6,114.5,1424.6,118.1z"/>
			<rect id="rect23" x="1402.2" y="98.6" class="st2" width="8.1" height="15.9"/>
			<path id="path24" class="st2" d="M1350.1,180.6h-1.7c-3.7,0-6.6-3-6.6-6.6v-14.2c0-3.7,3-6.6,6.6-6.6h1.7c3.7,0,6.6,3,6.6,6.6
				V174C1356.7,177.7,1353.8,180.6,1350.1,180.6z"/>
			<path id="path25" class="st4" d="M1390,156.9L1390,156.9c-5.7,0-10.3,4.6-10.3,10.3v2.4c0,1.5,1.2,2.7,2.7,2.7h15.1
				c1.5,0,2.7-1.2,2.7-2.7v-2.4C1400.3,161.5,1395.7,156.9,1390,156.9L1390,156.9z"/>
			<path id="path26" class="st4" d="M1423,156.9L1423,156.9c-5.7,0-10.3,4.6-10.3,10.3v2.4c0,1.5,1.2,2.7,2.7,2.7h15.1
				c1.5,0,2.7-1.2,2.7-2.7v-2.4C1433.3,161.5,1428.7,156.9,1423,156.9L1423,156.9z"/>
			<path id="path27" class="st4" d="M1407,187h-1.2c-3.7,0-6.7-3-6.7-6.7l0,0h14.6l0,0C1413.7,184,1410.7,187,1407,187z"/>
			<circle id="circle27" class="st0" cx="1406.3" cy="93.9" r="10"/>
		</g>
		<path id="path28" class="st2" d="M1152.7,49.6c-0.9,1-7.7,9-19.1,8.8c-10.9-0.2-17.4-7.7-18.3-8.8c0-5.2,0-10.3,0-15.5h37.4V49.6z
			"/>
		<polygon id="polygon28" class="st0" points="1100.9,29.4 1133.6,46.4 1166.3,29.4 1133.6,12.4 		"/>
		<rect id="rect34" x="1227.2" y="109.9" class="st1" width="43.4" height="43.4"/>
		<path id="path35" class="st1" d="M1183.5,133.8l38.5,38.3c1.9,1.9,5.2,0.6,5.2-2.2V93.4c0-2.7-3.3-4.1-5.2-2.2l-38.5,38.3
			C1182.3,130.7,1182.3,132.6,1183.5,133.8L1183.5,133.8z"/>
		<rect id="rect35" x="1226.6" y="153.2" class="st5" width="43.4" height="43.4"/>
		<path id="path36" class="st5" d="M1313.7,177.1l-38.5,38.3c-1.9,1.9-5.2,0.6-5.2-2.2v-76.5c0-2.7,3.3-4.1,5.2-2.2l38.5,38.3
			C1315,173.9,1315,175.9,1313.7,177.1z"/>
		<line id="line36" class="st6" x1="123.9" y1="6.4" x2="123.9" y2="63.4"/>
		<line id="line37" class="st6" x1="95.4" y1="34.9" x2="152.5" y2="34.9"/>
		<line id="line38" class="st6" x1="103.8" y1="14.7" x2="144.1" y2="55.1"/>
		<line id="line39" class="st6" x1="103.8" y1="55.1" x2="144.1" y2="14.7"/>
		<g id="g50">
			<g id="g49">
				<path id="path39" class="st7" d="M180,216.7c-1.6,0-3-1.3-3-3V191c0-7.3,5.9-13.2,13.2-13.2h21.4c1.6,0,3,1.3,3,3s-1.3,3-3,3
					h-21.4c-4,0-7.2,3.2-7.2,7.2v22.7C183,215.3,181.6,216.7,180,216.7z"/>
				<path id="path40" class="st7" d="M211.6,144.1h-21.4c-7.3,0-13.2-5.9-13.2-13.2v-22.7c0-1.6,1.3-3,3-3c1.6,0,3,1.3,3,3v22.7
					c0,4,3.2,7.2,7.2,7.2h21.4c1.6,0,3,1.3,3,3C214.5,142.8,213.2,144.1,211.6,144.1L211.6,144.1z"/>
				<path id="path41" class="st7" d="M210.1,163.9H180c-1.6,0-3-1.3-3-3c0-1.6,1.3-3,3-3h30.1c1.6,0,3,1.3,3,3
					C213.1,162.6,211.8,163.9,210.1,163.9L210.1,163.9z"/>
				<path id="path42" class="st7" d="M237.1,120.9v92.8c-4.6-2.2-21.9-11-29.8-30.9c-8-20.3-3.1-44.2,12.3-61.9
					C225.5,120.9,231.3,120.9,237.1,120.9z"/>
				<path id="path43" class="st7" d="M302.5,216.7c1.6,0,3-1.3,3-3V191c0-7.3-5.9-13.2-13.2-13.2h-21.4c-1.6,0-3,1.3-3,3s1.3,3,3,3
					h21.4c4,0,7.2,3.2,7.2,7.2v22.7C299.5,215.3,300.9,216.7,302.5,216.7z"/>
				<path id="path44" class="st7" d="M270.9,144.1h21.4c7.3,0,13.2-5.9,13.2-13.2v-22.7c0-1.6-1.3-3-3-3c-1.6,0-3,1.3-3,3v22.7
					c0,4-3.2,7.2-7.2,7.2h-21.4c-1.6,0-3,1.3-3,3C268,142.8,269.3,144.1,270.9,144.1L270.9,144.1z"/>
				<path id="path45" class="st7" d="M272.4,163.9h30.1c1.6,0,3-1.3,3-3c0-1.6-1.3-3-3-3h-30.1c-1.6,0-3,1.3-3,3
					C269.4,162.6,270.7,163.9,272.4,163.9z"/>
				<path id="path46" class="st7" d="M245.4,120.9v92.8c4.6-2.2,21.9-11,29.8-30.9c8-20.3,3.1-44.2-12.3-61.9
					C257,120.9,251.2,120.9,245.4,120.9z"/>
				<g id="g47">
					<path id="path47" class="st1" d="M244.7,94.4h-6.8c-9.9,0-18,8.1-18,18l0,0h42.9l0,0C262.7,102.5,254.7,94.4,244.7,94.4z"/>
				</g>
				<path id="path48" class="st1" d="M246.8,105.1L246.8,105.1c-1.3-1.3-1.3-3.4,0-4.7l11.6-11.6c1.3-1.3,3.4-1.3,4.7,0l0,0
					c1.3,1.3,1.3,3.4,0,4.7l-11.6,11.6C250.3,106.4,248.2,106.4,246.8,105.1z"/>
				<path id="path49" class="st1" d="M235.9,105.1L235.9,105.1c1.3-1.3,1.3-3.4,0-4.7l-11.6-11.6c-1.3-1.3-3.4-1.3-4.7,0l0,0
					c-1.3,1.3-1.3,3.4,0,4.7l11.6,11.6C232.4,106.4,234.5,106.4,235.9,105.1z"/>
			</g>
		</g>
		<g id="g52">
			<g id="g51">
				<path id="path50" class="st1" d="M1081,42.6c-0.7,5.5-4,9-9.2,10.8c-1,0.4-2.1,0.5-3.1,0.5c-5,0-10,0-15,0
					c-4.8,0-9.6-0.1-14.5,0c-6,0.2-11.1-4.7-12.2-9.3c-1.4-5.6,0.9-11.5,6-14.3c1.1-0.6,1.6-1.2,1.9-2.6c1.3-6.4,7.2-10.7,13.8-9.9
					c0.9,0.1,1.4-0.1,2-0.8c3.7-4.2,8.4-5.7,13.8-4.2c5.2,1.4,8.4,4.9,9.5,10.2c0.4,1.6,0.3,3.3,0,4.9c-0.1,0.7,0,1,0.6,1.4
					C1079.5,32.3,1081.7,36.8,1081,42.6z"/>
			</g>
		</g>
		<g id="g55">
			<g id="g54">
				<path id="path52" class="st5" d="M879.2-54.7c4,2.5,4.3,6.7,4.7,10.6c1.1,10.2,4.3,18.1,16.3,19.6c5.2,0.6,10.1,3.7,14.6,6.6
					c2.6,1.7,4.7,1.5,7.3-0.3c4.7-3.4,9.7-6.3,14.5-9.6c3.4-2.3,6.3-2.3,9.2,0.7c6.3,6.5,12.7,12.9,19.2,19.2c3,3,3,5.9,0.7,9.2
					c-3.3,4.8-6.2,9.8-9.6,14.5c-1.8,2.6-1.9,4.6-0.3,7.3c4.3,7.1,7.5,14.8,9.5,22.9c0.8,3.5,2.5,5.2,6,5.8
					c5.1,0.9,10.1,2.4,15.2,3.2c2.7,0.5,4.6,1.8,6.1,3.8c0,11.2,0,22.4,0,33.6c-2.5,4-6.7,4.4-10.6,4.7c-10.7,0.9-18.2,4.7-20,16.7
					c-0.6,4.5-3.5,9-6,13c-2.2,3.5-1.8,6.1,0.5,9.3c3.4,4.6,6.3,9.7,9.5,14.5c2,3,1.7,5.7-0.9,8.3c-6.6,6.5-13.1,13.1-19.6,19.6
					c-2.8,2.8-5.6,2.9-8.8,0.8c-5.1-3.4-10.4-6.7-15.4-10.2c-2.5-1.7-4.5-2-7.2-0.3c-7.1,4.3-14.8,7.4-22.9,9.4
					c-2.9,0.7-4.2,2.2-4.7,4.9c-1.2,5.7-2.7,11.2-3.7,16.9c-0.5,2.7-1.8,4.6-3.8,6.1c-11.2,0-22.4,0-33.6,0
					c-3.2-1.9-4.2-5.2-4.3-8.4c-0.6-13.1-5.8-22-19.9-23.7c-1.7-0.2-3.5-0.9-4.7-2c-7.3-6.2-13.2-3.5-20.2,1.4
					c-15.3,10.7-11.8,10.3-25.1-2.7c-4-3.9-7.9-7.9-11.9-11.9c-2.6-2.5-2.9-5.2-0.9-8.3c3.3-5,6.3-10.1,9.8-15
					c2.1-2.9,2.4-5.1,0.5-8.2c-4.2-6.9-7.4-14.4-9.3-22.3c-0.8-3.6-2.9-4.9-6.2-5.6c-5.1-0.9-10.1-2.4-15.2-3.3
					c-2.7-0.5-4.6-1.8-6.1-3.8c0-11.2,0-22.4,0-33.6c2.5-4,6.7-4.3,10.6-4.7c10.2-1.1,18.1-4.3,19.6-16.3c0.6-5.2,3.7-10.1,6.6-14.6
					c1.7-2.6,1.5-4.7-0.3-7.3c-3.4-4.7-6.3-9.7-9.6-14.5c-2.3-3.4-2.3-6.3,0.7-9.2c6.5-6.3,12.9-12.8,19.2-19.2c3-3,5.9-3,9.2-0.7
					c4.8,3.3,9.8,6.2,14.5,9.6c2.6,1.8,4.6,1.9,7.3,0.3c7.1-4.3,14.8-7.6,22.9-9.5c3.5-0.8,5.2-2.5,5.8-6.1
					c0.9-5.1,2.3-10.1,3.2-15.2c0.5-2.7,1.8-4.6,3.8-6.1C856.8-54.7,868-54.7,879.2-54.7L879.2-54.7z M916.7,156
					c4.4,0.1,6.5,2.4,8.9,3.9c4.9,3,9.9,8.7,14.6,8.4c5.2-0.3,8.5-7.7,13.1-11.5c2.7-2.2,2.6-4.1,0.6-6.8c-3.3-4.5-6-9.4-9.3-14
					c-2-2.9-2.3-5.6-0.4-8.5c6.1-9.5,10.4-19.8,12.9-30.8c0.7-3.2,2.7-4.9,5.9-5.5c5.3-1,10.5-2.4,15.8-3.4c2.9-0.5,3.9-1.8,3.8-4.7
					c-0.2-5-0.2-10.1,0-15.1c0.1-2.9-1-4.1-3.9-4.6c-5.1-0.9-10.1-2.4-15.3-3.3c-3.5-0.6-5.5-2.3-6.3-5.8
					c-2.4-11-6.7-21.3-12.7-30.8c-1.9-3-1.8-5.6,0.2-8.5c3.3-4.7,6.3-9.7,9.6-14.5c1.5-2.1,1.7-3.8-0.5-5.4
					c-0.2-0.1-0.3-0.3-0.4-0.4C949-9.4,945.2-16,940.2-17s-10.2,5.2-15,8.6c-4.8,3.5-8.5,3.6-13.5,0.3c-8.2-5.5-17.5-8.9-27.2-11
					c-4-0.9-6.4-2.8-7-7.2c-0.7-4.9-2.3-9.8-3.2-14.7c-0.5-2.8-1.7-4.2-4.6-3.8c-0.2,0-0.4,0-0.6,0c-5.8,0.1-12.7-1.7-17,0.8
					c-4.5,2.7-3.7,10.4-4.8,15.9c-1.1,5.5-3.5,8.2-9.1,9.4c-9.9,2-19.1,6.2-27.5,11.6c-3.4,2.2-6.2,2.2-9.5-0.1
					c-4.2-3-8.9-5.5-13-8.7c-3.2-2.4-5.3-2-7.6,1c-3.6,4.5-10.9,7.6-11.1,12.7c-0.1,4.6,5,9.7,8.4,14.1c3.9,5,4.1,9.2,0.5,14.5
					c-5.3,7.9-8.6,16.8-10.6,26.1c-1,4.5-2.9,7.5-7.8,7.7c-0.6,0-1.1,0.3-1.7,0.5c-18,4.1-17.9,4.1-16.4,22.8
					c0.2,2.7,1.2,3.7,3.7,4.2c5.3,1,10.5,2.4,15.8,3.4c3.6,0.6,5.5,2.6,6.2,5.9c2.4,10.8,6.7,20.9,12.7,30.2c1.9,3,1.8,5.6-0.3,8.6
					c-3.2,4.6-6,9.5-9.3,14c-1.9,2.6-2.3,4.5,0.5,6.8c4.6,3.8,7.9,11.2,13.1,11.5c4.7,0.3,10-5,14.6-8.4c5.1-3.9,9.5-4.4,15.1-0.6
					c7.7,5.2,16.5,8.3,25.6,10.2c4.4,0.9,6.6,3.1,7.2,7.7s2.4,9,2.9,13.5c0.5,4.2,2.1,5.7,6.3,5.3c5.6-0.4,12.4,1.6,16.4-1
					c4.2-2.6,3.6-10.1,4.4-15.5c0.9-6.6,4.1-9.5,10.6-10.8c8.9-1.8,17.1-5.8,25-10.5C914.3,157.3,915.8,156,916.7,156L916.7,156z"/>
				<path id="path53" class="st1" d="M867.5,105.5c0,10.2-0.1,20.5,0.1,30.7c0,1.9-1.9,5.7,2.8,5.2c3.6-0.4,7.8,0.5,7.6-5.8
					c-0.4-10.6,0.3-21.3-0.3-31.9c-0.3-6.9,1.7-11.9,6.8-16.7c6.6-6.2,15.6-11.3,14.1-22.8c-0.3-2,1.9-3.2,4.1-3.4
					c2.4-0.2,4.1,1,5.1,3.1c1.9,4.3,0,14.3-3.4,17.8c-4.8,4.8-9.5,9.6-14.3,14.3c-1.6,1.6-2.5,3.2-2.5,5.5c0.1,10.4,0.1,20.9,0,31.3
					c0,3.3,0.7,4.2,3.9,2.6c8.1-4,15.1-9.4,21-16.1c6-6.9,10.4-14.8,13.2-23.6c0.8-2.6,2.2-4.5,5.3-4.5c2.1,0,3.6,0.9,4.5,3
					c1,2.4-0.2,4.6-0.9,6.7c-11.2,33.3-45.2,54.7-80.8,50.8c-34.6-3.8-63.4-32.6-67.2-67.2c-5.7-51.9,40.8-94.3,91.9-83.2
					c28.2,6.1,47,23.7,56.6,51c1.1,3.2,1.4,6.4-2.4,7.8c-3.9,1.4-6.1-0.9-7.2-4.6c-0.3-1.1-0.7-2.2-1.1-3.3
					C915,27,888.3,8.7,861.9,9.5c-41.2,1.2-71.3,36.8-64.6,77.5c3.6,22,16.2,37.9,35.9,48.4c3.2,1.7,4.4,1.2,4.2-2.6
					c-0.2-4.8-0.7-9.8,0.1-14.5c2.3-14.4-2.4-25.5-14.2-33.7c-6.5-4.5-7.1-10.9-6.5-17.9c0.3-3.4,1.7-5.6,5.2-5.7
					c3.3-0.1,5.2,2.4,4.8,5.3c-1.1,6.8,2.9,10.7,7.2,14.7c3.4,3.2,6.5,6.6,9.9,9.8c2.5,2.3,3.4,4.8,3.4,8.2
					c-0.2,12.6,0.1,25.1-0.1,37.7c-0.1,5.8,4.2,4.4,7.2,5c4.5,0.8,3.2-2.7,3.2-4.8c0.1-20.7,0-41.3,0.1-62c0-3-0.6-4.7-3.6-6.1
					c-9-4.3-13.2-13.5-11-22.5c2.4-9.5,10.1-15.8,19.5-15.9c9.6-0.1,17.7,6.5,20,16.2c2.1,8.9-2.3,18.1-11.3,22.4
					c-2.8,1.3-3.5,2.9-3.4,5.7C867.6,84.6,867.5,95,867.5,105.5L867.5,105.5z M852.2,50.3c0,5.6,4.7,10.2,10.4,10.1
					c5.4-0.1,9.8-4.5,9.9-10c0.1-5.7-4.4-10.3-10.1-10.4C856.8,40,852.2,44.7,852.2,50.3L852.2,50.3z"/>
				<path id="path54" class="st5" d="M928.9,75.4c0,3.4,1.8,5.2,4.9,5.2c2.7,0,4.6-1.7,4.7-4.7c0.1-3.3-1.8-5.1-4.9-5.1
					C930.9,70.8,929.1,72.5,928.9,75.4L928.9,75.4z"/>
			</g>
		</g>
		<g id="g57">
			<g id="g56">
				<path id="path55" class="st1" d="M1567.5,178.5L1567.5,178.5c0.1,3.4,0.1,6.8,0.1,10.2c0,1.8,0.1,3.4,1.9,4.3c1.9,1,3.2,0,4.6-1
					c4.8-3.6,9.4-7.3,14.3-10.7c3.1-2.2,4.8-4.5,4.9-8.6c0.1-7.6,8.6-11.5,15-7.4c4,2.6,5.6,7.6,3.9,11.9c-1.9,4.9-6.2,7.5-11.6,6.1
					c-3.5-0.9-5.9-0.2-8.5,1.9c-4.2,3.4-8.5,6.7-12.9,9.7c-3.1,2.1-4.6,4.5-4.7,8.4c0,5.3-4.5,9.2-9.8,9.1
					c-5.3-0.2-10.5-5.3-9.8-10.3c0.5-3.3-1-4.7-3.1-6.2c-7.1-5.2-14.3-10.3-21.3-15.7c-2-1.6-3.7-2-6.2-1c-4.3,1.7-8.6,0.2-11.3-3.3
					c-2.5-3.3-2.7-8.3-0.4-11.5c2.7-3.8,7-5.4,11.2-4.1c4.6,1.4,7.1,4.7,7,9.9c0,2.3,0.5,4.1,2.4,5.5c7.6,5.5,15.1,11.1,22.7,16.6
					c1.4,1,2.8,2,4.6,0.9c1.8-1,1.8-2.7,1.7-4.5c0-6.3-0.1-12.5,0-18.8c0.1-2.8-0.5-4.7-3.1-6.4c-3.3-2.1-5.1-5.4-4.2-9.5
					c0.5-2.2-0.6-3.1-2-4.2c-4.9-3.7-9.8-7.3-14.6-11.1c-2.9-2.3-5.7-4.2-9.5-1.9c-1.1,0.7-2.5,0.4-3.8,0.1c-5.3-1.3-8.9-6.4-8-11.4
					c0.9-5.3,5.9-9.1,11-8.5c5.7,0.7,9.4,5.1,8.9,11c-0.2,2.4,0.5,3.6,2.3,4.9c5.5,4,10.6,8.8,16.5,12c5.2,2.9,11.5,0.6,17.2,1
					c0.2,0,0.5-0.3,0.7-0.5c5.6-4.2,11.1-8.4,16.7-12.5c1.6-1.2,2.1-2.8,2.4-4.7c0.9-5-0.4-8.7-5.1-11.2c-2.2-1.2-4.1-3-6.2-4.5
					c-4.6-3.5-8.5-7.5-15.7-5.4c-5.1,1.5-9.8-4-9.8-9.8c-0.1-5.5,4-9.8,9.5-10.1c5.5-0.3,10.5,4,10.3,9.6c-0.2,3.9,1.5,5.9,4.4,7.9
					c4.7,3.2,9.2,6.7,13.6,10.2c2.3,1.9,4.7,2.8,7.8,2.4c3.8-0.5,7,0.8,9.3,4c2.4,3.5,2.3,8.1-0.2,11.6s-6.8,4.9-10.9,3.6
					c-2-0.6-3.8-1.5-5.9,0.3c-5.4,4.4-11.1,8.4-16.7,12.6c-1.6,1.2-2.5,2.5-2.2,4.6c0.4,3.1-0.2,6.5-2.9,8
					c-4.8,2.7-4.9,6.7-4.6,11.2C1567.6,175.1,1567.5,176.8,1567.5,178.5L1567.5,178.5z M1525.7,170.2c-0.2-3.3-1.8-5.1-4.6-5.1
					c-2.8-0.1-4.6,1.6-4.7,4.4c-0.1,3,1.8,4.9,4.7,4.9C1523.8,174.5,1525.3,172.5,1525.7,170.2L1525.7,170.2z M1560.3,155.6
					c0.2,2.9,2.1,4.7,5.1,4.5c2.7-0.2,4.4-2.1,4.3-4.8c-0.2-2.9-2.2-4.4-5.1-4.5C1561.7,151.2,1560.1,152.9,1560.3,155.6z
					 M1598,127.4c0.2,2.9,1.9,4.5,4.6,4.4s4.6-1.8,4.6-4.6c0-2.9-1.8-4.7-4.9-4.6C1599.4,122.8,1598.1,124.6,1598,127.4L1598,127.4z
					 M1602.7,178.3c2.8-0.3,4.7-1.6,4.7-4.5c0.1-3.1-2-4.8-4.8-4.8c-2.7,0-4.5,1.8-4.5,4.7C1598.2,176.6,1599.9,178,1602.7,178.3
					L1602.7,178.3z M1565.6,92.8c-2.6,0.2-4.2,1.8-4.2,4.6c0,2.9,1.7,4.6,4.5,4.7c3.1,0.1,4.8-1.9,4.7-4.9
					C1570.5,94.5,1568.8,92.9,1565.6,92.8L1565.6,92.8z M1531.7,127.1c-0.1-2.8-1.7-4.7-4.3-4.8c-2.9-0.1-4.9,1.8-5,4.7
					c-0.1,2.8,1.8,4.5,4.6,4.6C1529.8,131.6,1531.4,130,1531.7,127.1L1531.7,127.1z M1569.7,202.2c0-2.7-1.8-4.7-4.5-4.7
					c-2.9,0-4.9,1.7-4.8,4.8c0,2.9,2,4.2,4.8,4.5C1567.8,206.5,1569.7,204.9,1569.7,202.2z"/>
			</g>
		</g>
		<g transform="translate(0.000000,330.000000) scale(0.100000,-0.100000)">
			<path class="st0" d="M6664.5,3204.1c-4.8-1.3-14.8-5.2-22.2-8.7c-18.9-9.2-36.7-27.2-45.7-46c-15.1-31.1-15.1-63-0.2-93.5
				c5.4-11,9.2-16,20.3-27c21.6-21.4,43.7-30.6,73.2-30.6s51.6,9.2,73.2,30.6c11.1,11,14.9,16,20.3,27c14.9,30.5,14.9,62.4-0.2,93.5
				c-9.1,18.9-26.8,36.8-45.7,45.9c-7.5,3.7-17.8,7.8-23,9.1C6702.6,3207.3,6676.2,3207.3,6664.5,3204.1z"/>
			<path class="st0" d="M6585.1,2988.2c-17.9-4.9-32.5-17.8-43.5-38.6c-18.9-35.9-26.7-85.7-27-170.8c-0.2-49.2,0-51,3.3-57.3
				c11.9-22.2,36.7-30.8,98.4-34.1c38.1-2.1,152-1,175.1,1.7c44,5.1,65.9,16.8,72.4,39.2c2.4,8.1,2.5,14.8,1.7,55.3
				c-1.7,80.3-9.2,127.3-25.9,162c-10.2,21.1-24.9,36.2-41.1,41.6c-12.7,4.1-19.5,3.7-28.3-2.5c-4.3-2.9-13.7-8.1-20.8-11.4
				c-44.6-20.8-99.4-16.5-139.9,11.3C6601.3,2990.1,6595.6,2991,6585.1,2988.2z"/>
		</g>
		<g>
			<path class="st4" d="M1100.1,157.3c0,1.5,0,3,0,4.5c0,3.1-2.4,5.6-5.4,5.6s-5.5-2.5-5.5-5.6c0-3,0-6,0-9.1c0-0.6-0.2-1-0.8-1.2
				c-2.3-1.1-4.5-2.2-6.7-3.4c-2.9-1.4-4-4.6-2.6-7.4c1.3-2.8,4.6-3.8,7.4-2.5c2.5,1.2,4.9,2.4,7.4,3.7c0.6,0.3,1,0.3,1.6,0
				c2.4-1.3,4.9-2.5,7.4-3.7c3.3-1.6,7,0.1,7.8,3.5c0.6,2.5-0.5,5-2.8,6.2s-4.5,2.3-6.8,3.4c-0.7,0.3-0.9,0.7-0.9,1.5
				C1100.1,154.4,1100.1,155.9,1100.1,157.3z"/>
			<path class="st5" d="M1089.1,190.2c0-0.8-0.1-1.7,0.1-2.7c0.6-2.9,3.1-4.7,6-4.4c2.6,0.3,4.8,2.6,4.8,5.3c0,1.3,0,2.6,0,3.8
				c0,0.6,0.2,0.7,0.7,0.4c0.7-0.4,1.4-0.7,2.1-1.1c3.7-1.7,7.7,0.8,7.8,4.8c0.1,2.1-0.9,3.9-2.8,4.9c-3.7,1.9-7.4,3.8-11.2,5.6
				c-1.5,0.7-3.1,0.7-4.6-0.1c-3.6-1.8-7.2-3.6-10.8-5.4c-2.7-1.4-3.7-4.6-2.4-7.3c1.3-2.7,4.5-3.8,7.2-2.6c0.8,0.3,1.5,0.7,2.3,1.1
				c0.5,0.3,0.6,0.1,0.6-0.4C1089.1,191.7,1089.1,191.1,1089.1,190.2z"/>
			<path class="st5" d="M1125,127.2c-1-0.5-1.9-1-2.5-1.8c-1.6-1.9-1.7-4.6-0.3-6.6c1.5-2.1,4.2-3,6.5-1.9c3.9,1.8,7.7,3.8,11.5,5.8
				c1.9,1,2.6,2.9,2.6,5c0,4.3,0,8.5,0,12.8c0,2.4-1.1,4.2-3.3,5.2c-2.1,0.9-4.1,0.6-5.8-0.9c-1.1-1-1.8-2.3-1.8-3.8
				c0-1.3,0-2.7,0-4c0-0.8-0.2-0.8-0.8-0.5c-1.2,0.6-2.4,1.4-3.8,1.6c-2.5,0.3-4.9-1.2-5.8-3.7c-0.8-2.4,0.2-5.1,2.3-6.4
				C1124.2,127.7,1124.5,127.5,1125,127.2z"/>
			<path class="st5" d="M1064.4,127.2c0.2,0.3,0.6,0.4,0.9,0.6c2.6,1.5,3.5,4.7,2.1,7.3c-1.3,2.6-4.5,3.6-7.1,2.4
				c-0.8-0.4-1.5-0.7-2.3-1.1c-0.5-0.2-0.7-0.2-0.6,0.4c0,1.3,0,2.6,0,3.9c0,2.9-2.3,5.2-5.1,5.4c-2.9,0.2-5.3-1.8-5.7-4.7
				c-0.1-0.5-0.1-1-0.1-1.5c0-3.9,0-7.8,0-11.7c0-2.9,1.1-5,3.8-6.2c3.3-1.6,6.6-3.3,9.9-4.9c3.8-1.8,8.1,0.9,7.9,5
				c-0.1,2-1.1,3.6-2.8,4.6C1064.9,126.8,1064.7,126.9,1064.4,127.2C1064.4,127.1,1064.4,127.2,1064.4,127.2z"/>
			<path class="st4" d="M1046.4,173.4c0.1-2-0.2-4.4,0.1-6.9c0.4-2.9,2.9-4.9,5.8-4.7c2.9,0.2,5,2.5,5.1,5.4c0,3,0,6,0,9
				c0,0.7,0.2,1.1,0.9,1.4c2.3,1.1,4.5,2.2,6.7,3.4c2.2,1.1,3.4,3.4,3.1,5.6c-0.4,2.5-2.1,4.3-4.6,4.8c-1.1,0.2-2.2,0-3.2-0.5
				c-3.6-1.8-7.2-3.6-10.8-5.4c-2.1-1.1-3-2.9-3-5.2C1046.3,178.1,1046.4,176,1046.4,173.4z"/>
			<path class="st4" d="M1142.9,174.5c-0.1,1.9,0.2,4.4-0.1,6.9c-0.2,1.9-1.2,3.3-2.9,4.2c-3.6,1.8-7.2,3.6-10.8,5.4
				c-2.8,1.3-6,0.2-7.3-2.5s-0.3-5.9,2.5-7.3c2.3-1.2,4.5-2.3,6.8-3.4c0.6-0.3,0.9-0.7,0.9-1.4c0-2.9,0-5.8,0-8.7
				c0-3.3,2.3-5.7,5.4-5.7c3.2,0,5.5,2.3,5.6,5.7C1142.9,169.6,1142.9,171.8,1142.9,174.5z"/>
			<path class="st4" d="M1105.2,116.6c-0.9,0.1-1.8-0.3-2.6-0.7c-2.4-1.2-4.9-2.4-7.3-3.7c-0.5-0.2-0.9-0.2-1.3,0
				c-2.5,1.2-4.9,2.5-7.4,3.7c-3.7,1.8-7.5-0.2-8.1-4.3c-0.3-2,0.8-4.2,2.7-5.2c3.7-1.9,7.5-3.8,11.2-5.6c1.4-0.7,2.9-0.7,4.3,0
				c3.8,1.8,7.5,3.7,11.2,5.6c2.2,1.2,3.2,3.7,2.5,6.1C1109.9,115,1107.8,116.6,1105.2,116.6z"/>
		</g>
		<g>
			<path class="st5" d="M601.2,186c-0.4,2.4-3.1,3.3-5.1,1.7c-3.2-2.5-6-5.4-8.5-8.6c-5.4-7-8.9-14.9-10.4-23.6
				c-0.3-1.8-0.5-3.6-0.7-5.3v-6.6c0-0.4,0.1-0.7,0.1-1.1c0.2-1.6,0.4-3.1,0.7-4.7c2.3-12.9,8.6-23.5,18.7-31.8
				c1.6-1.3,3.4-1.2,4.5,0.2c1.2,1.4,0.9,3.2-0.6,4.5c-5.9,4.8-10.4,10.6-13.4,17.6c-2,4.6-3.2,9.3-3.7,14.2
				c-0.2,2.4-0.2,4.7-0.1,7.1c0.1,1.4,0.2,2.7,0.4,4.1c1.8,11.7,7.4,21.3,16.5,28.9C600.7,183.5,601.5,184.5,601.2,186z"/>
			<path class="st1" d="M643.8,143.3c-0.1-0.3-0.1-0.6-0.2-0.8c-2.3-7.5-9.9-12.3-17.7-10.7c-5.7,1.2-10.2,5.4-11.8,10.7
				c-0.4,1.2-0.6,2.4-0.6,3.6s0,2.4,0.3,3.5c1.1,5.7,5.2,10.4,11.1,12c0.7,0.2,0.9,0.5,0.9,1.2c0,5.5,0,11,0,16.5v8.7
				c0,2.7,0,5.5,0,8.2c0,1.7,1.4,3,3.1,3c1.6,0,2.9-1.3,3-3c0-0.3,0-0.7,0-1c0-10.7,0-21.4,0-32.1c0-0.9,0.2-1.3,1.1-1.5
				c5.8-1.6,9.9-6.4,10.9-11.9C644.4,147.6,644.3,145.5,643.8,143.3z M629,156c-4.1,0-7.6-2.7-8.8-6.4c-0.3-0.9-0.5-1.8-0.4-2.8
				c0-1.6,0.4-3,1.1-4.3c1.6-2.9,4.6-4.9,8.1-4.9s6.5,2,8.1,4.9c0.7,1.3,1.1,2.8,1.1,4.3c0,1-0.2,1.9-0.4,2.8
				C636.5,153.3,633,156,629,156z"/>
			<path class="st5" d="M681.3,146.8c0,1-0.1,1.9-0.1,2.8c-0.9,15.3-7.3,28-19.3,37.9c-1.6,1.3-3.4,1.2-4.5-0.2
				c-1.2-1.4-1-3.2,0.7-4.6c5.1-4.2,9.3-9.2,12.3-15.2c2.9-5.8,4.5-11.8,4.9-18c0.1-2.1,0.1-4.2-0.1-6.3c0-0.3,0-0.6-0.1-0.8
				c-1.2-12.6-6.8-23-16.4-31.3c-0.3-0.3-0.6-0.5-0.9-0.8c-1.2-1.2-1.3-3-0.3-4.2c1.1-1.3,2.8-1.5,4.2-0.4c2.4,1.9,4.7,4,6.7,6.3
				c7.6,8.7,12,18.9,12.9,30.4c0,0.1,0,0.3,0,0.4c0,0.5,0.1,0.9,0.1,1.4C681.3,145.2,681.3,146,681.3,146.8z"/>
			<path class="st5" d="M611.4,173.3c-0.3,1.2-1.1,2-2.3,2.3c-1.1,0.3-2-0.1-2.8-0.7c-6.8-5.6-11.2-12.8-12.8-21.5
				c-0.2-1.2-0.4-2.5-0.5-3.7c-0.1-1-0.1-1.9-0.1-2.9c0-1.4,0.1-2.9,0.3-4.2c1.2-9.4,5.5-17.4,13.1-23.7c1.4-1.2,3.3-1.1,4.4,0.2
				c1.2,1.3,1.1,3.2-0.4,4.4c-2.3,2.1-4.5,4.2-6.3,6.9c-2.5,3.8-4.1,7.9-4.7,12.3c-0.3,1.9-0.3,3.8-0.3,5.7c0,0.5,0.1,0.9,0.1,1.4
				c0.5,5.6,2.5,10.7,6,15.3c1.5,1.9,3.2,3.6,5.1,5.2C611.2,171,611.7,172,611.4,173.3z"/>
			<path class="st5" d="M664.8,149.6c-0.6,9.6-5,17.9-13.1,25c-2,1.7-4.7,1.1-5.3-1.3c-0.4-1.3,0.2-2.4,1.2-3.3
				c1.9-1.7,3.8-3.4,5.3-5.5c3.2-4.3,5-9.1,5.7-15c0.1-1,0.2-2,0.2-3.1c0-1.4-0.1-2.7-0.3-4.1c-0.9-6.3-3.8-12.4-9.2-17.4
				c-0.6-0.6-1.3-1.2-2-1.8c-1.3-1.3-1.4-3-0.3-4.3c1.1-1.3,2.9-1.4,4.3-0.3c6.1,4.9,10.4,11.1,12.2,18.7c0.4,1.8,0.8,3.5,1,5.2
				C664.9,144.9,665,147.3,664.8,149.6z"/>
		</g>
		<g>
			<circle id="circle16-1_2_" class="st4" cx="55" cy="113.5" r="4.6"/>
			<circle id="circle17-8_2_" class="st4" cx="68.7" cy="113.5" r="4.6"/>
			<g>
				<g>
					<g id="_x39_50_x2C__Coding_x2C__Html_x2C__Html_Coding_x2C__Programming_x2C__Web_1_">
						<g>
							<path class="st0" d="M131.2,140.3L131,125v-12.7c0-7.7-6.5-14.2-14.2-14.2h-64c-7.7,0-14.2,6.5-14.2,14.2l0.3,28v0.2v8.1
								l-0.3,43.5c0,7.7,6.5,14.2,14.2,14.2h64.3c7.7,0,14.2-6.5,14.2-14.2v-43.9L131.2,140.3z M46.3,112.3c0-3.7,2.8-6.5,6.5-6.5
								h64.3c3.4,0,6.5,2.8,6.5,6.5v9H46.4v-9H46.3z M123.6,192c0,3.4-2.8,6.5-6.5,6.5H52.8c-3.4,0-6.5-2.8-6.5-6.5v-63h77.2v63
								H123.6z"/>
							<rect x="65.5" y="175.3" class="st7" width="27.2" height="7.7"/>
							<rect x="58.1" y="163.6" class="st7" width="42.3" height="7.7"/>
							<rect x="104.1" y="163.6" class="st7" width="7.7" height="7.7"/>
							<rect x="58.1" y="186.8" class="st7" width="54.1" height="7.7"/>
							<path class="st0" d="M107.8,148.6l-1.2,1.2l-5.6,5.6c-1.4,1.4-3.5,1.4-4.9,0s-1.4-3.5,0-4.9l0.7-0.7l3.6-3.6l-4.3-4.3
								c-1.4-1.4-1.4-3.5,0-4.9s3.5-1.4,4.9,0l5.6,5.6l1.2,1.2C109.1,145,109.1,147.2,107.8,148.6z"/>
							<path class="st0" d="M73.8,150.5c1.4,1.4,1.4,3.5,0,4.9s-3.5,1.4-4.9,0l-6.8-6.8c-1.4-1.4-1.4-3.5,0-4.9l1.2-1.2l5.6-5.6
								c1.4-1.4,3.5-1.4,4.9,0s1.4,3.5,0,4.9l-0.7,0.7l-3.7,3.7L73.8,150.5z"/>
							<path class="st0" d="M91.2,140.7l-0.9,1.8l-3.6,7.3l-2.3,4.5c-0.5,1.1-1.6,1.9-3,1.9c-2.4,0-4.1-2.4-3.3-4.9l0.8-1.5l3.6-7.3
								l2.4-4.8c0.8-1.9,3-2.4,4.6-1.6C91.5,136.9,92,139,91.2,140.7z"/>
						</g>
					</g>
				</g>
			</g>
		</g>
	</g>
</g>
</svg>
