<?xml version="1.0" encoding="utf-8"?>
<!-- Generator: Adobe Illustrator 25.2.1, SVG Export Plug-In . SVG Version: 6.00 Build 0)  -->
<svg version="1.1" id="Слой_1" xmlns="http://www.w3.org/2000/svg" xmlns:xlink="http://www.w3.org/1999/xlink" x="0px" y="0px"
	 viewBox="0 0 1632.8 308.8" style="enable-background:new 0 0 1632.8 308.8;" xml:space="preserve">
<style type="text/css">
	.st0{fill:#5176E8;}
	.st1{fill:#31333F;}
	.st2{fill:#7FC123;}
	.st3{fill:#FFFFFF;}
	.st4{fill:#E1EAFB;}
	.st5{fill:#7BC029;}
	.st6{fill:none;stroke:#7FC123;stroke-width:6;stroke-linecap:round;stroke-linejoin:round;stroke-miterlimit:10;}
	.st7{fill:#7FBD2A;}
</style>
<g>
	<g>
		<g id="g59_1_">
			<rect id="rect1-6_1_" x="1477" class="st0" width="155.8" height="155.8"/>
			<rect id="rect2-7_1_" x="1165.5" class="st0" width="155.8" height="155.8"/>
			<rect id="rect3-5_1_" x="545.2" y="0.1" class="st0" width="155.8" height="155.8"/>
			<rect id="rect4-3_1_" x="155.8" class="st0" width="155.8" height="155.8"/>
			<rect id="rect5-5_1_" x="700.9" class="st0" width="308.8" height="308.8"/>
			<rect id="rect6-6_1_" x="1321.2" class="st1" width="155.8" height="155.8"/>
			<rect id="rect7-2_1_" x="1009.7" y="155.7" class="st0" width="77.9" height="77.9"/>
			<rect id="rect8-9_1_" x="1087.6" y="155.7" class="st1" width="77.9" height="77.9"/>
			<rect id="rect9-1_1_" x="623.1" y="155.7" class="st1" width="77.9" height="77.9"/>
			<rect id="rect10-2_1_" x="155.8" y="155.7" class="st1" width="77.9" height="77.9"/>
			<rect id="rect11-7_1_" x="77.9" y="155.7" class="st0" width="77.9" height="77.9"/>
			<rect id="rect12-0_1_" x="311.6" class="st2" width="77.9" height="77.9"/>
			<path id="path12-9_1_" class="st0" d="M350.5,70.5L350.5,70.5c0-17.4-14.1-31.6-31.6-31.6l0,0c17.4,0,31.6-14.1,31.6-31.6l0,0
				c0,17.4,14.1,31.6,31.6,31.6l0,0C364.6,38.9,350.5,53,350.5,70.5z"/>
			<path id="path13-3_1_" class="st0" d="M194.7,226.2L194.7,226.2c0-17.4-14.1-31.6-31.6-31.6l0,0c17.4,0,31.6-14.1,31.6-31.6l0,0
				c0,17.4,14.1,31.6,31.6,31.6l0,0C208.9,194.7,194.7,208.8,194.7,226.2z"/>
			<rect id="rect13-6_1_" x="1009.7" class="st1" width="155.8" height="155.8"/>
			<rect id="rect14-0_1_" x="389.4" class="st1" width="155.8" height="155.8"/>
			<rect id="rect15-6_1_" class="st1" width="155.8" height="155.8"/>
			<path id="path15-2_1_" class="st0" d="M519.3,21.4H416.4c-3.8,0-7,3.1-7,7V124c0,3.8,3.1,7,7,7h102.8c3.8,0,7-3.1,7-7V28.4
				C526.2,24.5,523.1,21.4,519.3,21.4z"/>
			<path id="path16-6_1_" class="st2" d="M519.3,21.4H416.4c-3.8,0-7,3.1-7,7v14.8h116.8V28.4C526.2,24.5,523.1,21.4,519.3,21.4z"/>
			<circle id="circle16-1_1_" class="st1" cx="421.7" cy="32.3" r="4.6"/>
			<circle id="circle17-8_1_" class="st1" cx="436.3" cy="32.3" r="4.6"/>
			<circle id="circle18-7_1_" class="st1" cx="451" cy="32.3" r="4.6"/>
			<path id="path18-9_1_" class="st3" d="M446.8,109c-1,0-2-0.4-2.7-1.1l-20-20c-1.5-1.5-1.5-3.9,0-5.4l19.7-19.7
				c1.5-1.5,3.9-1.5,5.4,0s1.5,3.9,0,5.4l-17,17l17.3,17.3c1.5,1.5,1.5,3.9,0,5.4C448.7,108.6,447.7,109,446.8,109z"/>
			<path id="path19-2_1_" class="st3" d="M489.3,109c-1,0-2-0.4-2.7-1.1c-1.5-1.5-1.5-3.9,0-5.4l17.3-17.3l-17-17
				c-1.5-1.5-1.5-3.9,0-5.4s3.9-1.5,5.4,0L512,82.5c0.7,0.7,1.1,1.7,1.1,2.7s-0.4,2-1.1,2.7l-20,20C491.3,108.6,490.3,109,489.3,109
				z"/>
			<path id="path20-0_1_" class="st3" d="M460.8,110c-0.4,0-0.9-0.1-1.3-0.2c-2-0.7-3-3-2.3-4.9l15.2-40.8c0.7-2,3-3,4.9-2.3
				c2,0.7,3,3,2.3,4.9l-15.2,40.8C463.8,109.1,462.4,110,460.8,110L460.8,110z"/>
			<g id="g27-2_1_" transform="matrix(-1,0,0,1,3290.09,96.419987)">
				<path id="path21-3_1_" class="st2" d="M1910-46h-37.9c-20.5,0-37,16.6-37,37v21.8c0,20.5,16.6,37,37,37h37.9
					c20.5,0,37-16.6,37-37V-9C1947-29.5,1930.4-46,1910-46z M1929.9,8.2c0,12.7-10.3,23.1-23.1,23.1h-31.6
					c-12.7,0-23.1-10.3-23.1-23.1V-4.5c0-12.7,10.3-23.1,23.1-23.1h31.6c12.7,0,23.1,10.3,23.1,23.1V8.2z"/>
				<path id="path22-7_1_" class="st2" d="M1948.7,16.4h-1.7c-3.7,0-6.6-3-6.6-6.6V-4.4c0-3.7,3-6.6,6.6-6.6h1.7
					c3.7,0,6.6,3,6.6,6.6V9.8C1955.3,13.4,1952.3,16.4,1948.7,16.4z"/>
				<path id="path23-5_1_" class="st2" d="M1909.4-46.1v1.7c0,3.7-3,6.6-6.6,6.6h-23.5c-3.7,0-6.6-3-6.6-6.6v-1.7
					c0-3.7,3-6.6,6.6-6.6h23.5C1906.4-52.7,1909.4-49.8,1909.4-46.1z"/>
				<path id="path24-2_1_" class="st2" d="M1835,16.4h-1.7c-3.7,0-6.6-3-6.6-6.6V-4.4c0-3.7,3-6.6,6.6-6.6h1.7c3.7,0,6.6,3,6.6,6.6
					V9.8C1841.6,13.4,1838.6,16.4,1835,16.4z"/>
				<path id="path25-2_1_" class="st4" d="M1874.8-7.4L1874.8-7.4c-5.7,0-10.3,4.6-10.3,10.3v2.4c0,1.5,1.2,2.7,2.7,2.7h15.1
					c1.5,0,2.7-1.2,2.7-2.7V2.9C1885.1-2.8,1880.5-7.4,1874.8-7.4L1874.8-7.4z"/>
				<path id="path26-8_1_" class="st4" d="M1907.9-7.4L1907.9-7.4c-5.7,0-10.3,4.6-10.3,10.3v2.4c0,1.5,1.2,2.7,2.7,2.7h15.1
					c1.5,0,2.7-1.2,2.7-2.7V2.9C1918.2-2.8,1913.6-7.4,1907.9-7.4L1907.9-7.4z"/>
				<path id="path27-9_1_" class="st4" d="M1891.9,22.7h-1.2c-3.7,0-6.7-3-6.7-6.7l0,0h14.6l0,0
					C1898.6,19.7,1895.6,22.7,1891.9,22.7z"/>
				<circle id="circle27-7_1_" class="st0" cx="1891.1" cy="-70.4" r="10"/>
			</g>
			<path id="path28-3_1_" class="st2" d="M1107.4,208.9c0.9,1,7.7,9,19.1,8.8c10.9-0.2,17.4-7.7,18.3-8.8c0-5.2,0-10.3,0-15.5h-37.4
				V208.9z"/>
			<polygon id="polygon28-6_1_" class="st0" points="1159.2,188.6 1126.5,205.6 1093.8,188.6 1126.5,171.6 			"/>
			<rect id="rect34-4_1_" x="1220.1" y="76.7" class="st1" width="43.4" height="43.4"/>
			<path id="path35-5_1_" class="st1" d="M1176.4,96.3l38.5-38.3c1.9-1.9,5.2-0.6,5.2,2.2v76.5c0,2.7-3.3,4.1-5.2,2.2l-38.5-38.3
				C1175.2,99.4,1175.2,97.5,1176.4,96.3L1176.4,96.3z"/>
			<rect id="rect35-0_1_" x="1219.5" y="33.4" class="st5" width="43.4" height="43.4"/>
			<path id="path36-3_1_" class="st5" d="M1306.7,53l-38.5-38.3c-1.9-1.9-5.2-0.6-5.2,2.2v76.5c0,2.7,3.3,4.1,5.2,2.2l38.5-38.3
				C1307.9,56.1,1307.9,54.2,1306.7,53L1306.7,53z"/>
			<line id="line36-6_1_" class="st6" x1="116.9" y1="223.7" x2="116.9" y2="166.6"/>
			<line id="line37-1_1_" class="st6" x1="88.3" y1="195.2" x2="145.4" y2="195.2"/>
			<line id="line38-0_1_" class="st6" x1="96.7" y1="215.3" x2="137" y2="175"/>
			<line id="line39-6_1_" class="st6" x1="96.7" y1="175" x2="137" y2="215.3"/>
			<g id="g50-3_1_" transform="matrix(-1,0,0,1,559.36003,88.745)">
				<g id="g49-2_1_">
					<path id="path39-0_1_" class="st7" d="M263.9,53.6c-1.6,0-3-1.3-3-3V27.8c0-7.3,5.9-13.2,13.2-13.2h21.4c1.6,0,3,1.3,3,3
						c0,1.6-1.3,3-3,3h-21.4c-4,0-7.2,3.2-7.2,7.2v22.7C266.9,52.2,265.6,53.6,263.9,53.6z"/>
					<path id="path40-6_1_" class="st7" d="M295.5-19h-21.4c-7.3,0-13.2-5.9-13.2-13.2v-22.7c0-1.6,1.3-3,3-3c1.7,0,3,1.3,3,3v22.7
						c0,4,3.2,7.2,7.2,7.2h21.4c1.6,0,3,1.3,3,3C298.5-20.3,297.2-19,295.5-19L295.5-19z"/>
					<path id="path41-1_1_" class="st7" d="M294,0.8h-30.1c-1.6,0-3-1.3-3-3c0-1.6,1.3-3,3-3H294c1.6,0,3,1.3,3,3S295.7,0.8,294,0.8
						L294,0.8z"/>
					<path id="path42-5_1_" class="st7" d="M321.1-42.2v92.8c-4.6-2.2-21.9-11-29.8-30.9c-8-20.3-3.1-44.2,12.3-61.9
						C309.4-42.2,315.2-42.2,321.1-42.2z"/>
					<path id="path43-5_1_" class="st7" d="M386.5,53.6c1.6,0,3-1.3,3-3V27.8c0-7.3-5.9-13.2-13.2-13.2h-21.4c-1.6,0-3,1.3-3,3
						c0,1.6,1.3,3,3,3h21.4c4,0,7.2,3.2,7.2,7.2v22.7C383.5,52.2,384.8,53.6,386.5,53.6z"/>
					<path id="path44-4_1_" class="st7" d="M354.9-19h21.4c7.3,0,13.2-5.9,13.2-13.2v-22.7c0-1.6-1.3-3-3-3c-1.6,0-3,1.3-3,3v22.7
						c0,4-3.2,7.2-7.2,7.2h-21.4c-1.6,0-3,1.3-3,3C351.9-20.3,353.2-19,354.9-19L354.9-19z"/>
					<path id="path45-7_1_" class="st7" d="M356.3,0.8h30.1c1.6,0,3-1.3,3-3c0-1.6-1.3-3-3-3h-30.1c-1.6,0-3,1.3-3,3
						C353.4-0.5,354.7,0.8,356.3,0.8z"/>
					<path id="path46-6_1_" class="st7" d="M329.3-42.2v92.8c4.6-2.2,21.9-11,29.8-30.9c8-20.3,3.1-44.2-12.3-61.9
						C340.9-42.2,335.1-42.2,329.3-42.2z"/>
					<g id="g47-5_1_">
						<path id="path47-6_1_" class="st1" d="M328.7-68.7h-6.8c-9.9,0-18,8.1-18,18l0,0h42.9l0,0C346.7-60.6,338.6-68.7,328.7-68.7z"
							/>
					</g>
					<path id="path48-9_1_" class="st1" d="M330.8-58L330.8-58c-1.3-1.3-1.3-3.4,0-4.7l11.6-11.6c1.3-1.3,3.4-1.3,4.7,0l0,0
						c1.3,1.3,1.3,3.4,0,4.7L335.5-58C334.2-56.7,332.1-56.7,330.8-58z"/>
					<path id="path49-3_1_" class="st1" d="M319.8-58L319.8-58c1.3-1.3,1.3-3.4,0-4.7l-11.6-11.6c-1.3-1.3-3.4-1.3-4.7,0l0,0
						c-1.3,1.3-1.3,3.4,0,4.7L315.1-58C316.4-56.7,318.5-56.7,319.8-58z"/>
				</g>
			</g>
			<g id="g52-7_1_" transform="matrix(-1,0,0,1,2464.0976,368.12267)">
				<g id="g51-4_1_">
					<path id="path50-5_1_" class="st1" d="M1444.5-161.6c-0.7,5.5-4,9-9.2,10.8c-1,0.4-2.1,0.5-3.1,0.5c-5,0-10,0-15,0
						c-4.8,0-9.6-0.1-14.5,0c-6,0.2-11.1-4.7-12.2-9.3c-1.4-5.6,0.9-11.5,6-14.3c1.1-0.6,1.6-1.2,1.9-2.6c1.3-6.4,7.2-10.7,13.8-9.9
						c0.9,0.1,1.4-0.1,2-0.8c3.7-4.2,8.4-5.7,13.8-4.2c5.2,1.4,8.4,4.9,9.5,10.2c0.4,1.6,0.3,3.3,0,4.9c-0.1,0.7,0,1,0.6,1.4
						C1443.1-171.8,1445.3-167.3,1444.5-161.6z"/>
				</g>
			</g>
			<g id="g55-2_1_" transform="matrix(-1,0,0,1,2015.43,268.08)">
				<g id="g54-5_1_">
					<path id="path52-4_1_" class="st5" d="M1143.3-244.2c11.2,0,22.4,0,33.6,0c2,1.6,3.4,3.4,3.8,6.1c0.9,5.1,2.4,10.1,3.2,15.2
						c0.6,3.5,2.3,5.2,5.8,6.1c8.1,1.9,15.7,5.2,22.9,9.5c2.7,1.6,4.7,1.5,7.3-0.3c4.7-3.4,9.7-6.3,14.5-9.6
						c3.4-2.3,6.3-2.3,9.2,0.7c6.3,6.5,12.7,12.9,19.2,19.2c3,3,3,5.9,0.7,9.2c-3.3,4.8-6.2,9.8-9.6,14.5c-1.8,2.6-2,4.7-0.3,7.3
						c2.9,4.6,6,9.4,6.6,14.6c1.5,12,9.4,15.2,19.6,16.3c3.9,0.4,8.2,0.7,10.6,4.7c0,11.2,0,22.4,0,33.6c-1.6,2-3.4,3.4-6.1,3.8
						c-5.1,0.9-10.1,2.3-15.2,3.3c-3.3,0.6-5.4,2-6.2,5.6c-1.8,7.9-5.1,15.4-9.3,22.3c-1.9,3.1-1.6,5.4,0.5,8.2
						c3.5,4.8,6.5,10,9.8,15c2,3,1.7,5.7-0.9,8.3c-4,3.9-7.9,8-11.9,11.9c-13.3,13-9.8,13.4-25.1,2.7c-7-4.8-12.9-7.6-20.2-1.4
						c-1.3,1.1-3.1,1.8-4.7,2c-14.1,1.7-19.3,10.6-19.9,23.7c-0.1,3.1-1.1,6.5-4.3,8.4c-11.2,0-22.4,0-33.6,0
						c-2-1.6-3.3-3.4-3.8-6.1c-1-5.7-2.5-11.3-3.7-16.9c-0.6-2.7-1.8-4.1-4.7-4.9c-8.1-2-15.8-5.1-22.9-9.4
						c-2.8-1.7-4.8-1.4-7.2,0.3c-5.1,3.5-10.3,6.7-15.4,10.2c-3.2,2.2-6,2-8.8-0.8c-6.5-6.6-13.1-13.1-19.6-19.6
						c-2.6-2.6-2.9-5.2-0.9-8.3c3.2-4.8,6.1-9.8,9.5-14.5c2.3-3.2,2.7-5.7,0.5-9.3c-2.5-4.1-5.4-8.5-6-13c-1.7-12-9.3-15.8-20-16.7
						c-3.9-0.3-8.2-0.7-10.6-4.7c0-11.2,0-22.4,0-33.6c1.6-2,3.4-3.4,6.1-3.8c5.1-0.9,10.1-2.4,15.2-3.2c3.5-0.6,5.2-2.3,6-5.8
						c1.9-8.1,5.2-15.7,9.5-22.9c1.6-2.7,1.5-4.7-0.3-7.3c-3.4-4.7-6.3-9.7-9.6-14.5c-2.3-3.4-2.3-6.3,0.7-9.2
						c6.5-6.3,12.9-12.7,19.2-19.2c3-3,5.9-3,9.2-0.7c4.8,3.3,9.8,6.2,14.5,9.6c2.6,1.9,4.7,2,7.3,0.3c4.6-2.9,9.4-6,14.6-6.6
						c12-1.5,15.2-9.4,16.3-19.6C1139-237.4,1139.3-241.7,1143.3-244.2L1143.3-244.2z M1105.9-33.4c0.8-0.1,2.4,1.3,4,2.2
						c7.8,4.7,16,8.7,25,10.5c6.5,1.3,9.6,4.2,10.6,10.8c0.8,5.4,0.2,12.9,4.4,15.5c4.1,2.6,10.9,0.6,16.4,1
						c4.2,0.3,5.8-1.2,6.3-5.3c0.5-4.6,2.3-9,2.9-13.5s2.9-6.7,7.2-7.7c9.1-2,17.9-5.1,25.6-10.2c5.6-3.8,9.9-3.3,15.1,0.6
						c4.5,3.5,9.9,8.8,14.6,8.4c5.2-0.4,8.5-7.7,13.1-11.5c2.8-2.3,2.4-4.2,0.5-6.8c-3.3-4.5-6-9.4-9.3-14c-2-2.9-2.2-5.6-0.3-8.6
						c6-9.3,10.3-19.4,12.7-30.2c0.7-3.3,2.6-5.3,6.2-5.9c5.3-0.9,10.5-2.4,15.8-3.4c2.5-0.5,3.5-1.5,3.7-4.2
						c1.5-18.7,1.5-18.7-16.4-22.8c-0.6-0.1-1.1-0.4-1.7-0.5c-5-0.2-6.9-3.2-7.8-7.7c-2-9.3-5.3-18.2-10.6-26.1
						c-3.6-5.3-3.4-9.5,0.5-14.5c3.4-4.4,8.5-9.4,8.4-14.1c-0.2-5.1-7.4-8.2-11.1-12.7c-2.4-2.9-4.5-3.4-7.6-1
						c-4.1,3.2-8.8,5.6-13,8.7c-3.3,2.4-6.2,2.3-9.5,0.1c-8.5-5.5-17.7-9.7-27.5-11.6c-5.6-1.1-8.1-3.9-9.1-9.4
						c-1.1-5.5-0.2-13.3-4.8-15.9c-4.3-2.6-11.3-0.7-17-0.8c-0.2,0-0.4,0-0.6,0c-2.9-0.3-4.1,1-4.6,3.8c-0.9,4.9-2.5,9.7-3.2,14.7
						c-0.6,4.4-3,6.3-7,7.2c-9.7,2-18.9,5.5-27.2,11c-5,3.3-8.8,3.2-13.5-0.3c-4.8-3.5-10-9.6-15-8.6c-4.9,1-8.7,7.6-13.1,11.7
						c-0.1,0.1-0.3,0.3-0.4,0.4c-2.2,1.6-2,3.3-0.5,5.4c3.3,4.8,6.2,9.8,9.6,14.5c2.1,2.9,2.2,5.5,0.2,8.5
						c-6.1,9.5-10.3,19.8-12.7,30.8c-0.7,3.4-2.8,5.2-6.3,5.8c-5.1,0.9-10.1,2.4-15.3,3.3c-2.8,0.5-4,1.7-3.9,4.6
						c0.2,5,0.2,10.1,0,15.1c-0.1,2.8,0.9,4.2,3.8,4.7c5.3,0.9,10.5,2.4,15.8,3.4c3.3,0.6,5.2,2.3,5.9,5.5
						c2.5,11,6.7,21.3,12.9,30.8c1.9,3,1.6,5.7-0.4,8.5c-3.2,4.6-6,9.5-9.3,14c-2,2.7-2,4.5,0.6,6.8c4.6,3.8,7.9,11.2,13.1,11.5
						c4.7,0.3,9.7-5.4,14.6-8.4C1099.4-31,1101.4-33.3,1105.9-33.4L1105.9-33.4z"/>
					<path id="path53-7_1_" class="st1" d="M1155-84c0-10.4-0.1-20.9,0.1-31.3c0-2.8-0.6-4.3-3.4-5.7c-9-4.3-13.4-13.5-11.3-22.4
						c2.3-9.7,10.4-16.3,20-16.2c9.4,0.1,17.2,6.4,19.5,15.9c2.2,9-2,18.2-11,22.5c-3,1.4-3.7,3.1-3.6,6.1c0.1,20.7,0,41.3,0.1,62
						c0,2.1-1.3,5.7,3.2,4.8c3.1-0.6,7.3,0.8,7.2-5c-0.2-12.6,0-25.1-0.1-37.7c0-3.4,0.9-5.9,3.4-8.2c3.4-3.1,6.5-6.6,9.9-9.8
						c4.3-4,8.3-7.9,7.2-14.7c-0.5-2.9,1.4-5.3,4.8-5.3c3.5,0.1,4.9,2.3,5.2,5.7c0.6,7-0.1,13.4-6.5,17.9
						c-11.8,8.2-16.5,19.4-14.2,33.7c0.8,4.7,0.3,9.6,0.1,14.5c-0.2,3.8,1,4.3,4.2,2.6c19.7-10.4,32.3-26.4,35.9-48.4
						c6.6-40.7-23.4-76.4-64.6-77.5c-26.4-0.7-53.1,17.5-62.5,42.7c-0.4,1.1-0.8,2.2-1.1,3.3c-1,3.7-3.2,6-7.2,4.6
						c-3.8-1.3-3.5-4.6-2.4-7.8c9.6-27.3,28.4-44.9,56.6-51c51.1-11.1,97.6,31.4,91.9,83.2c-3.8,34.6-32.6,63.4-67.2,67.2
						c-35.5,3.9-69.6-17.5-80.8-50.8c-0.7-2.1-1.9-4.3-0.9-6.7c0.9-2,2.4-3,4.5-3c3.1,0,4.5,2,5.3,4.5c2.8,8.8,7.1,16.6,13.2,23.6
						c5.9,6.8,12.9,12.1,21,16.1c3.2,1.6,3.9,0.7,3.9-2.6c-0.1-10.4-0.1-20.9,0-31.3c0-2.4-0.9-4-2.5-5.5
						c-4.8-4.7-9.6-9.5-14.3-14.3c-3.4-3.4-5.4-13.5-3.4-17.8c1-2.1,2.6-3.3,5.1-3.1c2.1,0.2,4.3,1.3,4.1,3.4
						c-1.4,11.5,7.6,16.6,14.1,22.8c5.1,4.8,7.1,9.8,6.8,16.7c-0.5,10.6,0.2,21.3-0.3,31.9c-0.3,6.3,4,5.4,7.6,5.8
						c4.7,0.5,2.8-3.3,2.8-5.2C1155.1-63.5,1155-73.8,1155-84L1155-84z M1170.3-139.1c0-5.7-4.6-10.3-10.2-10.2
						c-5.7,0-10.2,4.7-10.1,10.4c0.1,5.4,4.5,9.8,9.9,10C1165.5-128.9,1170.2-133.5,1170.3-139.1L1170.3-139.1z"/>
					<path id="path54-4_1_" class="st5" d="M1093.6-114c0,3.4-1.8,5.2-4.9,5.2c-2.7,0-4.6-1.7-4.7-4.7c-0.1-3.3,1.8-5.1,4.9-5.1
						C1091.6-118.6,1093.4-116.9,1093.6-114L1093.6-114z"/>
				</g>
			</g>
			<g id="g57-4_1_" transform="matrix(-1,0,0,1,3655.1998,88.740121)">
				<g id="g56-3_1_">
					<path id="path55-0_1_" class="st1" d="M2101.3,17.8c0-1.7-0.1-3.4,0-5.1c0.3-4.5,0.2-8.5-4.6-11.2c-2.7-1.5-3.3-4.9-2.9-8
						c0.3-2.2-0.6-3.5-2.2-4.6c-5.6-4.1-11.2-8.2-16.7-12.6c-2.1-1.7-3.9-0.9-5.9-0.3c-4.2,1.3-8.4-0.2-10.9-3.6
						c-2.5-3.5-2.7-8.1-0.2-11.6c2.2-3.2,5.5-4.5,9.3-4c3.1,0.4,5.4-0.5,7.8-2.4c4.4-3.5,9-7,13.6-10.2c2.9-2,4.5-4,4.4-7.9
						c-0.2-5.6,4.8-9.9,10.3-9.6c5.4,0.3,9.5,4.6,9.5,10.1c-0.1,5.7-4.7,11.3-9.8,9.8c-7.2-2.2-11.1,1.9-15.7,5.4
						c-2,1.5-3.9,3.4-6.2,4.5c-4.7,2.5-6.1,6.1-5.1,11.2c0.3,1.9,0.8,3.5,2.4,4.7c5.6,4.1,11.1,8.3,16.7,12.5
						c0.2,0.2,0.5,0.5,0.7,0.5c5.8-0.4,12,1.9,17.2-1c5.9-3.3,11-8,16.5-12c1.8-1.3,2.5-2.5,2.3-4.9c-0.6-5.9,3.2-10.3,8.9-11
						c5.2-0.6,10.2,3.2,11,8.5c0.8,5-2.8,10.1-8,11.4c-1.3,0.3-2.7,0.6-3.8-0.1c-3.8-2.3-6.6-0.4-9.5,1.9
						c-4.8,3.8-9.7,7.4-14.6,11.1c-1.4,1.1-2.6,2-2,4.2c1,4.1-0.8,7.4-4.2,9.5c-2.6,1.6-3.2,3.6-3.1,6.4c0.1,6.3,0.1,12.5,0,18.8
						c0,1.7-0.1,3.4,1.7,4.5c1.8,1.1,3.2,0.1,4.6-0.9c7.6-5.6,15.1-11.1,22.7-16.6c1.9-1.4,2.5-3.2,2.4-5.5c-0.1-5.2,2.4-8.5,7-9.9
						c4.2-1.3,8.4,0.3,11.2,4.1c2.3,3.2,2.2,8.2-0.4,11.5c-2.7,3.6-7,5-11.3,3.3c-2.5-1-4.1-0.6-6.2,1c-7,5.3-14.2,10.5-21.3,15.7
						c-2.1,1.5-3.6,2.9-3.1,6.2c0.8,5.1-4.5,10.2-9.8,10.3c-5.3,0.2-9.7-3.7-9.8-9.1c0-3.9-1.6-6.3-4.7-8.4c-4.5-3-8.7-6.4-12.9-9.7
						c-2.6-2.1-5-2.8-8.5-1.9c-5.4,1.4-9.7-1.2-11.6-6.1c-1.7-4.4-0.1-9.3,3.9-11.9c6.4-4.1,14.9-0.1,15,7.4
						c0.1,4.2,1.8,6.5,4.9,8.6c4.9,3.4,9.6,7.1,14.3,10.7c1.4,1.1,2.7,2.1,4.6,1c1.9-1,2-2.5,1.9-4.3
						C2101.2,24.6,2101.3,21.2,2101.3,17.8L2101.3,17.8L2101.3,17.8z M2143.1,9.5c0.3,2.3,1.8,4.2,4.5,4.2c2.9,0,4.8-1.9,4.7-4.9
						c-0.1-2.9-1.9-4.5-4.7-4.4C2144.9,4.4,2143.3,6.2,2143.1,9.5L2143.1,9.5z M2104.3-10c-3,0.1-5,1.6-5.1,4.5
						c-0.2,2.7,1.6,4.6,4.3,4.8c2.9,0.2,4.9-1.6,5.1-4.5C2108.7-7.8,2107.1-9.6,2104.3-10z M2070.8-33.3c-0.1-2.8-1.4-4.6-4.3-4.8
						c-3.1-0.1-4.9,1.7-4.9,4.6c0,2.8,1.9,4.5,4.6,4.6C2068.9-28.8,2070.6-30.5,2070.8-33.3L2070.8-33.3z M2066.1,17.6
						c2.7-0.3,4.5-1.7,4.5-4.6s-1.8-4.6-4.5-4.7c-2.8,0-4.9,1.6-4.8,4.8C2061.4,16,2063.3,17.3,2066.1,17.6L2066.1,17.6z
						 M2103.2-67.9c-3.2,0.1-4.8,1.7-4.9,4.5c-0.1,3,1.6,5,4.7,4.9c2.7-0.1,4.5-1.8,4.5-4.7C2107.4-66.2,2105.8-67.7,2103.2-67.9
						L2103.2-67.9z M2137-33.7c0.3,2.9,2,4.5,4.8,4.5c2.8-0.1,4.6-1.8,4.6-4.6c-0.1-2.9-2.1-4.9-5-4.7
						C2138.7-38.4,2137.1-36.4,2137-33.7L2137-33.7z M2103.7,46c2.8-0.3,4.8-1.6,4.8-4.5c0-3.1-1.9-4.8-4.8-4.8
						c-2.7,0-4.5,2-4.5,4.7C2099.1,44.2,2100.9,45.8,2103.7,46z"/>
				</g>
			</g>
		</g>
		<g>
			<path class="st5" d="M597.8,111.7c-0.4,2.4-3.1,3.3-5.1,1.7c-3.2-2.5-6-5.4-8.5-8.6c-5.4-7-8.9-14.9-10.4-23.6
				c-0.3-1.8-0.5-3.6-0.7-5.3v-6.6c0-0.4,0.1-0.7,0.1-1.1c0.2-1.6,0.4-3.1,0.7-4.7c2.3-12.9,8.6-23.5,18.7-31.8
				c1.6-1.3,3.4-1.2,4.5,0.2c1.2,1.4,0.9,3.2-0.6,4.5c-5.9,4.8-10.4,10.6-13.4,17.6c-2,4.6-3.2,9.3-3.7,14.2
				c-0.2,2.4-0.2,4.7-0.1,7.1c0.1,1.4,0.2,2.7,0.4,4.1c1.8,11.7,7.4,21.3,16.5,28.9C597.3,109.2,598.1,110.2,597.8,111.7z"/>
			<path class="st1" d="M640.4,69c-0.1-0.3-0.1-0.6-0.2-0.8c-2.3-7.5-9.9-12.3-17.7-10.7c-5.7,1.2-10.2,5.4-11.8,10.7
				c-0.4,1.2-0.6,2.4-0.6,3.6s0,2.4,0.3,3.5c1.1,5.7,5.2,10.4,11.1,12c0.7,0.2,0.9,0.5,0.9,1.2c0,5.5,0,11,0,16.5v8.7
				c0,2.7,0,5.5,0,8.2c0,1.7,1.4,3,3.1,3c1.6,0,2.9-1.3,3-3c0-0.3,0-0.7,0-1c0-10.7,0-21.4,0-32.1c0-0.9,0.2-1.3,1.1-1.5
				c5.8-1.6,9.9-6.4,10.9-11.9C641,73.3,640.9,71.1,640.4,69z M625.5,81.7c-4.1,0-7.6-2.7-8.8-6.4c-0.3-0.9-0.5-1.8-0.4-2.8
				c0-1.6,0.4-3,1.1-4.3c1.6-2.9,4.6-4.9,8.1-4.9s6.5,2,8.1,4.9c0.7,1.3,1.1,2.8,1.1,4.3c0,1-0.2,1.9-0.4,2.8
				C633.1,79,629.6,81.7,625.5,81.7z"/>
			<path class="st5" d="M677.9,72.5c0,1-0.1,1.9-0.1,2.8c-0.9,15.3-7.3,28-19.3,37.9c-1.6,1.3-3.4,1.2-4.5-0.2
				c-1.2-1.4-1-3.2,0.7-4.6c5.1-4.2,9.3-9.2,12.3-15.2c2.9-5.8,4.5-11.8,4.9-18c0.1-2.1,0.1-4.2-0.1-6.3c0-0.3,0-0.6-0.1-0.8
				c-1.2-12.6-6.8-23-16.4-31.3c-0.3-0.3-0.6-0.5-0.9-0.8c-1.2-1.2-1.3-3-0.3-4.2c1.1-1.3,2.8-1.5,4.2-0.4c2.4,1.9,4.7,4,6.7,6.3
				c7.6,8.7,12,18.9,12.9,30.4c0,0.1,0,0.3,0,0.4c0,0.5,0.1,0.9,0.1,1.4C677.9,70.9,677.9,71.7,677.9,72.5z"/>
			<path class="st5" d="M608,99c-0.3,1.2-1.1,2-2.3,2.3c-1.1,0.3-2-0.1-2.8-0.7c-6.8-5.6-11.2-12.8-12.8-21.5
				c-0.2-1.2-0.4-2.5-0.5-3.7c-0.1-1-0.1-1.9-0.1-2.9c0-1.4,0.1-2.9,0.3-4.2c1.2-9.4,5.5-17.4,13.1-23.7c1.4-1.2,3.3-1.1,4.4,0.2
				c1.2,1.3,1.1,3.2-0.4,4.4c-2.3,2.1-4.5,4.2-6.3,6.9c-2.5,3.8-4.1,7.9-4.7,12.3c-0.3,1.9-0.3,3.8-0.3,5.7c0,0.5,0.1,0.9,0.1,1.4
				c0.5,5.6,2.5,10.7,6,15.3c1.5,1.9,3.2,3.6,5.1,5.2C607.8,96.7,608.3,97.7,608,99z"/>
			<path class="st5" d="M661.4,75.3c-0.6,9.6-5,17.9-13.1,25c-2,1.7-4.7,1.1-5.3-1.3c-0.4-1.3,0.2-2.4,1.2-3.3
				c1.9-1.7,3.8-3.4,5.3-5.5c3.2-4.3,5-9.1,5.7-15c0.1-1,0.2-2,0.2-3.1c0-1.4-0.1-2.7-0.3-4.1c-0.9-6.3-3.8-12.4-9.2-17.4
				c-0.6-0.6-1.3-1.2-2-1.8c-1.3-1.3-1.4-3-0.3-4.3c1.1-1.3,2.9-1.4,4.3-0.3c6.1,4.9,10.4,11.1,12.2,18.7c0.4,1.8,0.8,3.5,1,5.2
				C661.5,70.6,661.6,73,661.4,75.3z"/>
		</g>
		<g>
			<path class="st4" d="M1093.1,80.3c0,1.5,0,3,0,4.5c0,3.1-2.4,5.6-5.4,5.6s-5.5-2.4-5.5-5.6c0-3,0-6,0-9.1c0-0.6-0.2-1-0.8-1.2
				c-2.3-1.1-4.5-2.2-6.7-3.4c-2.9-1.4-4-4.6-2.6-7.4c1.3-2.8,4.6-3.8,7.4-2.5c2.5,1.2,4.9,2.4,7.4,3.7c0.6,0.3,1,0.3,1.6,0
				c2.4-1.3,4.9-2.5,7.4-3.7c3.3-1.6,7,0.1,7.8,3.5c0.6,2.5-0.5,5-2.8,6.2s-4.5,2.3-6.8,3.4c-0.7,0.3-0.9,0.7-0.9,1.5
				C1093.1,77.4,1093.1,78.8,1093.1,80.3z"/>
			<path class="st5" d="M1082.1,113.2c0-0.8-0.1-1.7,0.1-2.7c0.6-2.9,3.1-4.7,6-4.4c2.6,0.3,4.8,2.6,4.8,5.3c0,1.3,0,2.6,0,3.8
				c0,0.6,0.2,0.7,0.7,0.4c0.7-0.4,1.4-0.7,2.1-1.1c3.7-1.7,7.7,0.8,7.8,4.8c0.1,2.1-0.9,3.9-2.8,4.9c-3.7,1.9-7.4,3.8-11.2,5.6
				c-1.5,0.7-3.1,0.7-4.6-0.1c-3.6-1.8-7.2-3.6-10.8-5.4c-2.7-1.4-3.7-4.6-2.4-7.3c1.3-2.7,4.5-3.8,7.2-2.6c0.8,0.3,1.5,0.7,2.3,1.1
				c0.5,0.3,0.6,0.1,0.6-0.4C1082.1,114.7,1082.1,114,1082.1,113.2z"/>
			<path class="st5" d="M1118,50.2c-1-0.5-1.9-1-2.5-1.8c-1.6-1.9-1.7-4.6-0.3-6.6c1.5-2.1,4.2-3,6.5-1.9c3.9,1.8,7.7,3.8,11.5,5.8
				c1.9,1,2.6,2.9,2.6,5c0,4.3,0,8.5,0,12.8c0,2.4-1.1,4.2-3.3,5.2c-2.1,0.9-4.1,0.6-5.8-0.9c-1.1-1-1.8-2.3-1.8-3.8
				c0-1.3,0-2.7,0-4c0-0.8-0.2-0.8-0.8-0.5c-1.2,0.6-2.4,1.4-3.8,1.6c-2.5,0.3-4.9-1.2-5.8-3.7c-0.8-2.4,0.2-5.1,2.3-6.4
				C1117.2,50.6,1117.5,50.4,1118,50.2z"/>
			<path class="st5" d="M1057.3,50.2c0.2,0.3,0.6,0.4,0.9,0.6c2.6,1.5,3.5,4.7,2.1,7.3c-1.3,2.6-4.5,3.6-7.1,2.4
				c-0.8-0.4-1.5-0.7-2.3-1.1c-0.5-0.2-0.7-0.2-0.6,0.4c0,1.3,0,2.6,0,3.9c0,2.9-2.3,5.2-5.1,5.4c-2.9,0.2-5.3-1.8-5.7-4.7
				c-0.1-0.5-0.1-1-0.1-1.5c0-3.9,0-7.8,0-11.7c0-2.9,1.1-5,3.8-6.2c3.3-1.6,6.6-3.3,9.9-4.9c3.8-1.8,8.1,0.9,7.9,5
				c-0.1,2-1.1,3.6-2.8,4.6C1057.9,49.8,1057.6,49.9,1057.3,50.2C1057.4,50.1,1057.4,50.1,1057.3,50.2z"/>
			<path class="st4" d="M1039.3,96.4c0.1-2-0.2-4.4,0.1-6.9c0.4-2.9,2.9-4.9,5.8-4.7c2.9,0.2,5,2.5,5.1,5.4c0,3,0,6,0,9
				c0,0.7,0.2,1.1,0.9,1.4c2.3,1.1,4.5,2.2,6.7,3.4c2.2,1.1,3.4,3.4,3.1,5.6c-0.4,2.5-2.1,4.3-4.6,4.8c-1.1,0.2-2.2,0-3.2-0.5
				c-3.6-1.8-7.2-3.6-10.8-5.4c-2.1-1.1-3-2.9-3-5.2C1039.3,101.1,1039.3,99,1039.3,96.4z"/>
			<path class="st4" d="M1135.8,97.4c-0.1,1.9,0.2,4.4-0.1,6.9c-0.2,1.9-1.2,3.3-2.9,4.2c-3.6,1.8-7.2,3.6-10.8,5.4
				c-2.8,1.3-6,0.2-7.3-2.5s-0.3-5.9,2.5-7.3c2.3-1.2,4.5-2.3,6.8-3.4c0.6-0.3,0.9-0.7,0.9-1.4c0-2.9,0-5.8,0-8.7
				c0-3.3,2.3-5.7,5.4-5.7c3.2,0,5.5,2.3,5.6,5.7C1135.9,92.6,1135.8,94.8,1135.8,97.4z"/>
			<path class="st4" d="M1098.2,39.6c-0.9,0.1-1.8-0.3-2.6-0.7c-2.4-1.2-4.9-2.4-7.3-3.7c-0.5-0.2-0.9-0.2-1.3,0
				c-2.5,1.2-4.9,2.5-7.4,3.7c-3.7,1.8-7.5-0.2-8.1-4.3c-0.3-2,0.8-4.2,2.7-5.2c3.7-1.9,7.5-3.8,11.2-5.6c1.4-0.7,2.9-0.7,4.3,0
				c3.8,1.8,7.5,3.7,11.2,5.6c2.2,1.2,3.2,3.7,2.5,6.1C1102.9,38,1100.8,39.6,1098.2,39.6z"/>
		</g>
		<g transform="translate(0.000000,330.000000) scale(0.100000,-0.100000)">
			<path class="st0" d="M6594.2,1611.1c-4.8-1.3-14.8-5.2-22.2-8.7c-18.9-9.2-36.7-27.2-45.7-46c-15.1-31.1-15.1-63-0.2-93.5
				c5.4-11,9.2-16,20.3-27c21.6-21.4,43.7-30.6,73.2-30.6s51.6,9.2,73.2,30.6c11.1,11,14.9,16,20.3,27c14.9,30.5,14.9,62.4-0.2,93.5
				c-9.1,18.9-26.8,36.8-45.7,45.9c-7.5,3.7-17.8,7.8-23,9.1C6632.3,1614.3,6606,1614.3,6594.2,1611.1z"/>
			<path class="st0" d="M6514.8,1395.2c-17.9-4.9-32.5-17.8-43.5-38.6c-18.9-35.9-26.7-85.7-27-170.8c-0.2-49.2,0-51,3.3-57.3
				c11.9-22.2,36.7-30.8,98.4-34.1c38.1-2.1,152-1,175.1,1.7c44,5.1,65.9,16.8,72.4,39.2c2.4,8.1,2.5,14.8,1.7,55.3
				c-1.7,80.3-9.2,127.3-25.9,162c-10.2,21.1-24.9,36.2-41.1,41.6c-12.7,4.1-19.5,3.7-28.3-2.5c-4.3-2.9-13.7-8.1-20.8-11.4
				c-44.6-20.8-99.4-16.5-139.9,11.3C6531,1397.1,6525.3,1398.1,6514.8,1395.2z"/>
		</g>
		<g>
			<circle id="circle16-1_4_" class="st4" cx="49.6" cy="41.6" r="4.6"/>
			<circle id="circle17-8_4_" class="st4" cx="63.3" cy="41.6" r="4.6"/>
			<g>
				<g>
					<g id="_x39_50_x2C__Coding_x2C__Html_x2C__Html_Coding_x2C__Programming_x2C__Web_3_">
						<g>
							<path class="st0" d="M125.8,68.4l-0.2-15.3V40.4c0-7.7-6.5-14.2-14.2-14.2h-64c-7.7,0-14.2,6.5-14.2,14.2l0.3,28v0.2v8.1
								l-0.3,43.5c0,7.7,6.5,14.2,14.2,14.2h64.3c7.7,0,14.2-6.5,14.2-14.2V76.3L125.8,68.4z M40.9,40.4c0-3.7,2.8-6.5,6.5-6.5h64.3
								c3.4,0,6.5,2.8,6.5,6.5v9H40.9V40.4z M118.2,120.1c0,3.4-2.8,6.5-6.5,6.5H47.4c-3.4,0-6.5-2.8-6.5-6.5v-63h77.2v63H118.2z"/>
							<rect x="60.1" y="103.4" class="st7" width="27.2" height="7.7"/>
							<rect x="52.7" y="91.7" class="st7" width="42.3" height="7.7"/>
							<rect x="98.7" y="91.7" class="st7" width="7.7" height="7.7"/>
							<rect x="52.7" y="114.9" class="st7" width="54.1" height="7.7"/>
							<path class="st0" d="M102.4,76.6l-1.2,1.2l-5.6,5.6c-1.4,1.4-3.5,1.4-4.9,0s-1.4-3.5,0-4.9l0.7-0.7l3.6-3.6l-4.3-4.3
								c-1.4-1.4-1.4-3.5,0-4.9s3.5-1.4,4.9,0l5.6,5.6l1.2,1.2C103.7,73.1,103.7,75.3,102.4,76.6z"/>
							<path class="st0" d="M68.4,78.6c1.4,1.4,1.4,3.5,0,4.9s-3.5,1.4-4.9,0l-6.8-6.8c-1.4-1.4-1.4-3.5,0-4.9l1.2-1.2l5.6-5.6
								c1.4-1.4,3.5-1.4,4.9,0s1.4,3.5,0,4.9l-0.7,0.7L64,74.3L68.4,78.6z"/>
							<path class="st0" d="M85.8,68.8l-0.9,1.8l-3.6,7.3L79,82.4c-0.5,1.1-1.6,1.9-3,1.9c-2.4,0-4.1-2.4-3.3-4.9l0.8-1.5l3.6-7.3
								l2.4-4.8c0.8-1.9,3-2.4,4.6-1.6C86.1,65,86.6,67.1,85.8,68.8z"/>
						</g>
					</g>
				</g>
			</g>
		</g>
	</g>
</g>
</svg>
